<?xml version="1.0" encoding="UTF-8" standalone="no"?>
<svg
   xmlns:dc="http://purl.org/dc/elements/1.1/"
   xmlns:cc="http://creativecommons.org/ns#"
   xmlns:rdf="http://www.w3.org/1999/02/22-rdf-syntax-ns#"
   xmlns:svg="http://www.w3.org/2000/svg"
   xmlns="http://www.w3.org/2000/svg"
   xmlns:sodipodi="http://sodipodi.sourceforge.net/DTD/sodipodi-0.dtd"
   xmlns:inkscape="http://www.inkscape.org/namespaces/inkscape"
   version="1.1"
   id="svg19"
   width="520"
   height="200"
   viewBox="0 0 520 200"
   sodipodi:docname="logo-small.svg"
   inkscape:version="1.0.1 (3bc2e813f5, 2020-09-07)">
  <metadata
     id="metadata25">
    <rdf:RDF>
      <cc:Work
         rdf:about="">
        <dc:format>image/svg+xml</dc:format>
        <dc:type
           rdf:resource="http://purl.org/dc/dcmitype/StillImage" />
        <dc:title></dc:title>
      </cc:Work>
    </rdf:RDF>
  </metadata>
  <defs
     id="defs23" />
  <sodipodi:namedview
     pagecolor="#ffffff"
     bordercolor="#666666"
     borderopacity="1"
     objecttolerance="10"
     gridtolerance="10"
     guidetolerance="10"
     inkscape:pageopacity="0"
     inkscape:pageshadow="2"
     inkscape:window-width="1920"
     inkscape:window-height="1002"
     id="namedview21"
     showgrid="false"
     inkscape:zoom="1.4142136"
     inkscape:cx="349.48987"
     inkscape:cy="4.272722"
     inkscape:window-x="-8"
     inkscape:window-y="-8"
     inkscape:window-maximized="1"
     inkscape:current-layer="g27" />
  <g
     inkscape:groupmode="layer"
     inkscape:label="Image"
     id="g27">
    <path
       style="fill:#000000"
       d="m 118.34653,190.95214 c -0.38568,-0.38568 -0.70124,-1.60973 -0.70124,-2.72012 0,-1.11038 -0.91072,-2.98829 -2.02381,-4.17313 -1.87782,-1.99884 -1.91433,-2.36418 -0.50616,-5.06445 2.3638,-4.53275 2.01005,-7.4102 -0.91101,-7.4102 -1.34254,0 -2.7191,-0.45 -3.05902,-1 -0.33992,-0.55 -1.4829,-1 -2.53996,-1 -1.21608,0 -2.15238,-0.91817 -2.5494,-2.5 -0.52651,-2.09778 -1.21334,-2.4978 -4.26905,-2.48635 -2.002879,0.008 -4.692132,0.29495 -5.976126,0.63874 -3.123751,0.8364 -0.856852,2.31137 3.584537,2.3323 1.787499,0.008 3.249999,0.42956 3.249999,0.93585 0,2.05665 -16.281747,3.19771 -18.203702,1.27576 -1.887945,-1.88795 2.852618,-6.03837 8.907404,-7.79854 5.551719,-1.61393 6.230319,-2.3777 3.860219,-4.34471 -1.100577,-0.9134 -1.946683,-0.91857 -3.621676,-0.0221 -1.20208,0.64333 -4.268345,1.47764 -6.813923,1.85403 -3.443603,0.50916 -4.560951,1.08927 -4.365121,2.26629 0.354751,2.13221 -2.031361,3.95137 -7.614347,5.80516 l -4.648855,1.54357 -0.07777,7 c -0.09413,8.47245 -1.002373,12.5 -2.818833,12.5 -2.577226,0 -3.885352,-2.86117 -3.300773,-7.21954 0.309866,-2.31022 0.323023,-5.40225 0.02924,-6.87117 -0.518894,-2.59447 -0.724125,-2.66604 -7.183006,-2.50494 -3.656875,0.0912 -8.448858,-0.14954 -10.648858,-0.53502 -2.2,-0.38547 -10.660519,-0.84127 -18.801153,-1.01288 -12.519968,-0.26393 -15.043143,-0.57941 -16.37128,-2.04699 -0.8807,-0.97316 -1.288062,-2.47002 -0.92774,-3.40901 0.681988,-1.77723 1.338141,-1.75646 16.46118,0.52106 7.810572,1.17627 16.138993,0.36432 16.138993,-1.57341 0,-2.04395 -10.569855,-6.3481 -15.589247,-6.3481 -3.267756,0 -4.596208,-0.47801 -5.375569,-1.93426 -1.621358,-3.02953 -1.248069,-4.90579 1.714816,-8.61914 2.744662,-3.43985 2.7665,-3.44657 11.25,-3.46188 10.776613,-0.0195 11.813777,-0.60094 9.077471,-5.08931 -1.138497,-1.86747 -2.071677,-4.18291 -2.073733,-5.14541 -0.0039,-1.81439 -2.17447,-2.26799 -8.716135,-1.82145 -2.731579,0.18646 -3.313121,-0.18204 -3.885347,-2.46197 -0.388187,-1.54666 -0.224829,-2.9582 0.386046,-3.33574 0.582449,-0.35998 5.368355,-0.61362 10.635348,-0.56367 8.479307,0.0804 9.57635,-0.10914 9.57635,-1.65483 0,-2.17184 1.592891,-2.78318 5.641754,-2.16526 1.727965,0.26371 4.652965,0.004 6.5,-0.57659 1.847035,-0.58084 8.308246,-1.31289 14.358246,-1.62679 7.07325,-0.36699 14.034307,-1.43289 19.5,-2.9859 4.675001,-1.32835 7.508671,-2.44727 6.297051,-2.48649 -1.21162,-0.0392 -3.347289,-0.59271 -4.745936,-1.22997 -2.126719,-0.969 -2.878895,-0.85468 -4.595027,0.6984 -1.128621,1.02139 -2.592949,1.92774 -3.254063,2.01412 -10.725726,1.40135 -15.110817,1.40831 -17.218487,0.0273 -2.475867,-1.62225 -5.499639,-1.12564 -10.983538,1.80389 -1.853563,0.99019 -5.456816,1.60497 -9.429002,1.60878 -3.535951,0.003 -7.90122,0.53852 -9.700598,1.18918 -3.750284,1.35613 -8.3704,-0.0804 -8.3704,-2.60255 0,-1.87555 0.670018,-2.25132 5.329042,-2.98869 2.105973,-0.3333 4.591005,-1.0138 5.522294,-1.51221 0.931289,-0.49841 3.93322,-1.3835 6.670958,-1.96686 2.737738,-0.58337 7.677706,-1.72263 10.977706,-2.53168 l 6,-1.47102 -8.5,0.0807 c -12.145396,0.11523 -15.572169,-0.7436 -17.032321,-4.26872 -2.102857,-5.076755 -0.798921,-6.302725 9.532321,-8.962325 2.75,-0.70794 7.475,-1.55098 10.5,-1.87341 l 5.5,-0.58624 -3.665167,-2.16623 c -2.679331,-1.58356 -4.696639,-2.03139 -7.5,-1.66496 -4.446118,0.58115 -9.115457,-0.93355 -10.002327,-3.2447 -0.338933,-0.88325 0.115318,-3.14 1.009447,-5.01501 1.398508,-2.9327 2.121467,-3.4091 5.173414,-3.4091 1.951248,0 6.337926,0.93995 9.748173,2.08878 4.981136,1.67802 6.892263,1.89092 9.718455,1.08265 1.934903,-0.55336 6.352429,-1.31504 9.816725,-1.69262 4.058519,-0.44234 6.159268,-1.09414 5.906629,-1.83266 -0.448035,-1.30969 -4.709579,-1.4099 -12.827889,-0.30164 -4.625753,0.63147 -5.919918,0.47017 -7.299949,-0.90986 -3.213869,-3.21387 -1.58208,-4.86706 5.732606,-5.80779 5.460782,-0.7023 6.728408,-1.19144 6.478888,-2.5 -0.247218,-1.29649 -1.828523,-1.6875 -7.78689,-1.92546 -5.481737,-0.21893 -8.013712,-0.77952 -9.489395,-2.10099 -1.106996,-0.99131 -2.833478,-2.09308 -3.836627,-2.44838 -3.271731,-1.15877 -1.558813,-4.11891 2.582224,-4.4624 4.509868,-0.37408 4.795852,-2.08259 0.73536,-4.39312 -4.960128,-2.82246 -3.605214,-6.76985 2.33811,-6.81183 2.871582,-0.0203 5.088718,-1.49528 4.260927,-2.83467 -0.435127,-0.70405 -1.485198,-0.76119 -3.050654,-0.16601 -1.732307,0.65863 -2.713392,0.51448 -3.576474,-0.52547 -1.484619,-1.78886 -0.555731,-4.45853 1.551303,-4.45853 2.417993,0 4.520257,-5.82437 3.171069,-8.78552 -0.932564,-2.04675 -0.756185,-2.65442 1.1984,-4.12876 1.776626,-1.34012 2.342113,-2.84629 2.515224,-6.69929 0.270058,-6.0107997 1.014434,-7.3864302 3.99692,-7.3864302 2.906426,0 4.673655,3.5729602 3.429993,6.9347102 -1.327512,3.58842 -0.380768,4.90083 3.788379,5.25159 4.098484,0.34482 5.782487,2.63499 2.557657,3.47831 -1.1199,0.29286 -2.278187,1.16313 -2.573971,1.93393 -0.295785,0.7708 -1.373472,1.40146 -2.394861,1.40146 -1.746985,0 -6.205699,3.81836 -6.205699,5.31445 0,0.37705 1.843069,0.68555 4.095708,0.68555 5.127375,0 10.089522,2.75743 9.692622,5.38612 -0.158582,1.05029 -0.96333,2.22314 -1.78833,2.60632 -0.825,0.38319 -2.506394,1.21665 -3.736431,1.85213 -1.230037,0.63548 -2.805037,1.16965 -3.5,1.18703 -1.502586,0.0376 -7.199258,4.86604 -6.530278,5.53502 0.481761,0.48176 3.213728,0.88649 15.599433,2.31102 5.410168,0.62224 7.897318,1.40795 9.486119,2.99675 2.741819,2.74182 1.456326,5.16951 -3.401192,6.42326 -4.518361,1.1662 -4.700326,1.46584 -2.027223,3.33815 1.732362,1.21339 2.120171,2.18583 1.637949,4.10716 -0.552991,2.20329 -0.363814,2.44726 1.516356,1.95559 2.924211,-0.7647 4.955269,0.15975 4.955269,2.25542 0,2.8895 -3.267995,5.68833 -7.413695,6.34937 -2.152531,0.34322 -4.402531,1.13568 -5,1.76102 -0.809569,0.84734 0.951701,0.97232 6.913693,0.49059 7.522551,-0.60781 8.179041,-0.49847 11.000001,1.83207 4.08448,3.37442 2.63539,5.96875 -4.81018,8.6117 -3.196655,1.13472 -2.732238,3.00128 0.74675,3.00128 1.2752,0 2.9229,0.72821 3.66157,1.61824 1.15509,1.3918 0.99082,1.916571 -1.17387,3.750015 -2.05936,1.74424 -2.41758,2.74796 -1.97058,5.52158 0.48389,3.00255 0.94505,3.43303 4.0364,3.76787 1.91955,0.20792 4.35751,1.24545 5.41769,2.30563 2.7937,2.7937 0.70437,4.74659 -5.70572,5.3331 -7.813822,0.71495 -14.702061,2.68404 -14.702061,4.20276 0,3.57036 0.995465,4.0008 9.252452,4.0008 h 8.225809 l 0.51536,-3 c 0.45941,-2.67429 0.94916,-3.03516 4.51087,-3.32384 2.19753,-0.17812 4.67051,-0.89722 5.49551,-1.598 0.825,-0.70079 2.4,-1.66512 3.5,-2.14296 1.61643,-0.70218 1.19449,-0.93368 -2.20009,-1.20706 -7.68556,-0.61896 -6.52543,-7.22813 1.26877,-7.22813 1.75254,0 3.73573,-0.66186 4.40709,-1.47081 0.67137,-0.80894 2.13936,-1.37144 3.26221,-1.25 1.12286,0.12145 2.21964,-0.27712 2.43729,-0.88569 0.2406,-0.67275 -1.64622,-1.34835 -4.81319,-1.72343 -6.09173,-0.72147 -7.81209,-1.94043 -6.24496,-4.424855 1.32085,-2.094 4.43581,-3.0155 10.63288,-3.14554 4.1831,-0.0878 4.75,0.14972 4.75,1.99002 0,1.14935 0.99066,2.891911 2.20147,3.872365 l 2.20148,1.78265 -3.22389,2.94456 c -2.97471,2.71698 -3.16093,3.24855 -2.40943,6.87764 0.58987,2.84849 1.56121,4.29283 3.52242,5.23765 1.54359,0.74363 2.70795,2.12593 2.70795,3.21481 0,1.05064 0.9,2.39192 2,2.98062 2.36017,1.26312 2.62202,3.54733 0.5,4.36163 -2.27347,0.87241 -1.94942,5.63837 0.38337,5.63837 1.03585,0 2.11002,-0.86671 2.38703,-1.92601 0.313,-1.19692 2.04713,-2.38845 4.58099,-3.14761 2.24253,-0.67188 5.01343,-2.21803 6.15755,-3.43589 l 2.08022,-2.2143 -6.07792,0.1119 c -6.69935,0.12335 -9.24216,-1.58444 -6.47724,-4.35021 1.1546,-1.15496 5.19097,-1.50822 19.21383,-1.68159 23.8579,-0.29495 22.42052,-0.0923 17.82804,-2.51371 -3.43842,-1.81293 -5.87618,-2.08947 -19.69502,-2.23416 -8.67399,-0.0908 -16.07622,-0.47046 -16.44941,-0.84364 -1.15801,-1.15801 0.41248,-3.76323 2.28718,-3.79408 1.96023,-0.0323 8.28138,-5.3422 8.28138,-6.95659 0,-0.55776 -0.6199,-1.014104 -1.37756,-1.014104 -0.75765,0 -1.98056,-0.72658 -2.71756,-1.614621 -1.1488,-1.38422 -1.00777,-1.88365 0.98834,-3.5 1.28059,-1.03696 2.9242,-1.88538 3.65246,-1.88538 0.72827,0 2.49652,-0.44575 3.92946,-0.99055 2.22998,-0.84784 2.44962,-1.28152 1.5245,-3.01013 -0.89347,-1.66946 -0.64041,-2.42774 1.45976,-4.37412 1.39733,-1.295 2.5406,-2.62005 2.5406,-2.94456 0,-0.51335 -5.87303,-2.00805 -8.39101,-2.13553 -0.49006,-0.0248 -1.36397,-0.79489 -1.94201,-1.71129 -1.6651,-2.63972 0.84033,-4.68857 6.1537,-5.03229 3.72802,-0.24116 4.73711,-0.69988 5.03978,-2.29105 0.20814,-1.09423 1.26261,-2.60881 2.34326,-3.36573 2.61651,-1.83267 0.85322,-3.78078 -2.02691,-2.23938 -1.5866,0.84912 -2.38549,0.74309 -3.60736,-0.47879 -2.0786,-2.07859 -1.97923,-3.15372 0.43055,-4.65866 1.1,-0.68696 2,-2.21067 2,-3.38603 0,-1.17535 0.675,-2.69721 1.5,-3.38189 0.825,-0.68469 1.5,-2.09707 1.5,-3.13863 0,-2.90895 6.20623,-5.54407 9.51103,-4.0383 2.13767,0.97398 2.39148,1.49057 1.52648,3.10684 -1.31979,2.46605 -1.34109,6.76443 -0.0375,7.57009 0.55,0.33991 1,1.45933 1,2.48758 0,1.02826 0.70376,2.57332 1.56392,3.43348 0.95189,0.95189 1.44107,2.83872 1.25,4.82143 -0.26214,2.72021 -1.00839,3.58738 -4.52435,5.25751 -2.31574,1.1 -4.09251,2.40719 -3.94838,2.90486 0.31231,1.07842 8.2157,3.55841 11.40881,3.57995 1.2375,0.008 2.25,0.41179 2.25,0.89653 0,0.48474 1.43015,2.27958 3.17812,3.98854 3.10978,3.04039 3.38,5.66813 0.32188,3.13012 -0.85158,-0.70676 -1.87496,-0.93427 -2.27417,-0.5056 -0.3992,0.42867 -0.16333,0.9803 0.52417,1.22583 1.96602,0.70215 1.46161,4.01814 -0.85841,5.64314 -3.11921,2.18478 -1.42894,3.63663 4.23384,3.63663 4.82624,0 4.99596,0.0956 4.69098,2.642131 -0.18631,1.555744 -1.13878,2.928544 -2.31642,3.338714 -1.77678,0.61883 -9.756,-0.51632 -17.83343,-2.53705 -1.58506,-0.396544 -4.66916,-0.157924 -7,0.5416 -2.29161,0.68774 -4.80432,1.43712 -5.58379,1.6653 -2.96121,0.86686 0.91169,2.72332 5.21645,2.50049 2.37832,-0.12311 6.8032,0.42185 9.83306,1.21103 3.61437,0.94142 6.94406,1.17242 9.68227,0.6717 2.81125,-0.51407 4.71803,-0.36496 5.84192,0.45685 2.29866,1.68082 1.00271,4.50923 -2.06608,4.50923 -1.3598,0 -2.73653,0.42742 -3.05939,0.94983 -0.80066,1.2955 2.71555,3.04691 6.15325,3.06491 1.54866,0.008 3.94074,0.5839 5.31574,1.27953 3.05673,1.54645 3.40172,5.17909 0.5,5.26482 -1.1,0.0325 -3.125,0.5407 -4.5,1.12933 -1.375,0.58862 -3.36271,1.23703 -4.41713,1.4409 -2.7262,0.52711 -3.22953,2.87068 -0.61654,2.87068 3.50274,0 8.03367,2.85215 8.03367,5.05706 0,2.68338 -2.18475,3.3671 -6.35807,1.98978 -3.60297,-1.18909 -9.02607,-0.4774 -8.076,1.05983 0.30366,0.49133 1.89789,0.89333 3.54275,0.89333 5.74226,0 11.172,4.47243 7.89132,6.5 -0.55,0.33992 -1,1.94148 -1,3.55902 0,2.08689 -0.4876,2.94098 -1.679,2.94098 -2.27557,0 -8.321,2.23739 -8.321,3.07957 0,1.61025 6.29862,3.15135 10.51684,2.57318 3.96971,-0.54411 4.64014,-0.3428 6.0563,1.81853 0.87585,1.33671 1.4362,3.24001 1.24522,4.22955 -0.30377,1.57401 -1.29702,1.76429 -7.93655,1.52049 -5.94181,-0.21818 -7.87398,0.0643 -8.90062,1.30134 -1.03284,1.2445 -2.4229,1.44112 -6.54625,0.92594 -6.06476,-0.75774 -5.87872,-1.02668 -6.95293,10.0514 -0.75629,7.79948 -1.9336,10.20003 -4.11469,8.38989 -0.97726,-0.81106 -1.36732,-3.79071 -1.36732,-10.44495 0,-8.43191 -0.18867,-9.37005 -2,-9.94494 -2.97967,-0.94571 -2.42397,-3.46521 0.91142,-4.13228 1.65501,-0.33101 3.11849,-1.3741 3.39124,-2.4171 0.99407,-3.80132 -2.84915,-4.04455 -7.12029,-0.45062 -1.6341,1.375 -3.93445,2.5 -5.11191,2.5 -1.17745,0 -3.14903,0.6606 -4.38129,1.46801 -1.23225,0.8074 -4.3186,1.42629 -6.85855,1.3753 -5.35837,-0.10755 -6.83062,0.56405 -6.83062,3.11597 0,1.38054 -1.23919,2.13851 -4.95253,3.02933 -2.7239,0.65345 -5.35734,0.93791 -5.8521,0.63214 -0.89891,-0.55556 -7.74796,2.53184 -9.49728,4.28116 -0.50915,0.50915 -0.987,4.89595 -1.0619,9.74846 -0.10957,7.09848 -0.43887,8.88099 -1.68495,9.12076 -0.85182,0.1639 -1.86432,-0.0175 -2.25,-0.40323 z m 10.53104,-25.01741 c 2.93632,0.76787 12.90955,-1.42499 12.47057,-2.74195 -0.51035,-1.53104 -7.37674,-2.62567 -12.33462,-1.96636 -2.49837,0.33224 -4.3995,0.11624 -4.80901,-0.54637 -1.92008,-3.10675 -3.52232,1.23081 -1.95926,5.30409 0.47198,1.22995 1.02709,1.33488 2.60223,0.49189 1.10125,-0.58937 2.91479,-0.83296 4.03009,-0.5413 z m -73.655876,-1.52807 c 3.60968,-2.12976 3.721276,-2.1358 5.081967,-0.27495 1.167387,1.5965 1.706872,1.70553 3.352866,0.67758 1.078893,-0.67378 3.31773,-1.22505 4.975193,-1.22505 3.632761,0 4.041079,-2.21081 0.69029,-3.73753 -1.481929,-0.67521 -3.926366,-0.74967 -6.75,-0.20562 -2.434696,0.46911 -5.835664,0.6082 -7.557705,0.30908 -2.498752,-0.43404 -3.457907,-0.0771 -4.75,1.76761 -3.522737,5.02942 -1.171243,6.30486 4.957389,2.68888 z m 61.885456,-1.07242 c -0.98083,-4.57309 -1.25442,-4.83643 -4.27315,-4.11299 -3.78899,0.90802 -3.78935,0.92713 -0.0824,4.31289 4.25862,3.88965 5.22319,3.84538 4.35557,-0.1999 z m -71.461861,-5.75 c 0,-0.55 -0.675,-1 -1.5,-1 -0.825,0 -1.5,0.45 -1.5,1 0,0.55 0.675,1 1.5,1 0.825,0 1.5,-0.45 1.5,-1 z m 102.000001,-1 c 0,-0.55 -1.37656,-1 -3.05902,-1 -1.7847,0 -2.80156,0.41658 -2.44098,1 0.33992,0.55 1.71648,1 3.05902,1 1.34254,0 2.44098,-0.45 2.44098,-1 z m -56.72344,-1.87656 c 1.675543,-1.67554 -0.284655,-3.12344 -4.228589,-3.12344 -3.825393,0 -5.838708,1.91155 -4.424085,4.20045 0.721285,1.16707 7.217148,0.35851 8.652674,-1.07701 z m 92.28231,0.40836 c 1.81556,-1.37321 1.69062,-1.47025 -1.93131,-1.5 -3.33044,-0.0274 -3.69821,0.17815 -2.62756,1.4682 1.54922,1.8667 2.12759,1.87073 4.55887,0.0318 z m -82.89818,-2.97363 c -0.26161,-0.68175 -0.0919,-1.86052 0.37721,-2.61949 0.689,-1.11483 1.48778,-1.15671 4.15748,-0.21799 2.55828,0.89954 4.65971,0.86945 9.30462,-0.13324 6.02165,-1.29989 5.85357,-1.77593 -0.99239,-2.81074 -1.09581,-0.16564 -2.54713,-1.45861 -3.22516,-2.87327 -0.95279,-1.98793 -2.43077,-2.83151 -6.50761,-3.71434 -6.40255,-1.38645 -18.324107,-2.48269 -29.774841,-2.73794 -4.675,-0.1042 -9.85,-0.63339 -11.5,-1.17596 -3.248953,-1.06837 -14.5,-0.50489 -14.5,0.72619 0,1.91492 3.060416,2.57771 9.5,2.05741 3.85,-0.31106 9.025,-0.20706 11.5,0.23113 2.475,0.43818 7.875,1.11471 12,1.50338 6.597771,0.62168 7.5,0.94728 7.5,2.70669 0,1.71641 -0.638074,1.98784 -4.5,1.91422 -2.475,-0.0472 -6.598385,-0.54427 -9.163079,-1.10465 -2.716965,-0.59366 -6.681744,-0.68707 -9.5,-0.22384 -2.660306,0.43728 -7.454005,0.82187 -10.652662,0.85466 -3.198658,0.0328 -6.573658,0.46477 -7.5,0.95996 -0.926343,0.49519 -5.27947,1.06483 -9.673617,1.26585 -9.025235,0.4129 -10.789291,2.0605 -5.443125,5.0838 4.059771,2.29583 7.874597,2.20763 16.952582,-0.39196 5.29763,-1.51704 9.879646,-2.09362 15.705211,-1.97626 5.283708,0.10643 9.469896,-0.35433 11.705424,-1.28839 6.08149,-2.54101 20.299651,0.65566 21.941022,4.93301 0.337765,0.8802 1.097976,1.30132 1.689356,0.93583 0.591379,-0.36549 0.861189,-1.22232 0.599579,-1.90406 z m 29.33931,1.44183 c 0,-0.55 -0.675,-1 -1.5,-1 -0.825,0 -1.5,0.45 -1.5,1 0,0.55 0.675,1 1.5,1 0.825,0 1.5,-0.45 1.5,-1 z m 24.41821,-0.60699 c 2.16435,-0.83054 1.98543,-2.65984 -0.40624,-4.15346 -1.18603,-0.74069 -1.89201,-2.13968 -1.75,-3.46787 0.21881,-2.04658 -0.32345,-2.29015 -6.71662,-3.01695 -4.49303,-0.51078 -7.67861,-1.44794 -9,-2.6477 -1.84814,-1.67803 -2.67831,-1.74861 -8.61012,-0.73206 l -6.56476,1.12503 3.02346,2.5 c 2.65835,2.1981 4.23532,2.56038 13.05848,3 l 10.035,0.5 0.5063,2.90062 c 0.28888,1.65505 1.36512,3.23517 2.50629,3.67971 1.1,0.4285 2.0757,0.81073 2.16821,0.84938 0.0925,0.0387 0.88002,-0.20285 1.75,-0.5367 z m 11.01605,-3.39301 c 1.96116,0 3.56574,-0.45 3.56574,-1 0,-1.27867 -5.09751,-1.29362 -8.4349,-0.0248 -1.41081,0.53639 -2.5651,1.45222 -2.5651,2.03518 0,0.73805 0.5874,0.74557 1.93426,0.0247 1.06384,-0.56935 3.53884,-1.03518 5.5,-1.03518 z m 26.01869,-3.16052 c 2.51307,-1.14503 3.72115,-4.48877 1.29705,-3.59 -0.6875,0.2549 -4.2875,1.0606 -8,1.79044 -3.7125,0.72985 -6.75,1.69444 -6.75,2.14354 0,1.24362 10.56123,0.97358 13.45295,-0.34398 z m -5.72378,-6.44365 c -0.3323,-0.33229 -1.1948,-0.36781 -1.91667,-0.0789 -0.79773,0.31922 -0.56078,0.55618 0.60417,0.60416 1.05416,0.0434 1.64479,-0.19293 1.3125,-0.52522 z M 94.609721,134.6507 c 0.56914,-1.06345 2.272472,-2.07595 3.785184,-2.25 1.512716,-0.17405 2.750385,-0.76646 2.750385,-1.31646 0,-0.92595 -27.902108,-1.31879 -36.250001,-0.51037 -8.1243,0.78676 -0.771559,2.72916 18.25,4.82116 4.4,0.48392 8.546667,0.94945 9.214816,1.03453 0.668149,0.0851 1.680476,-0.71541 2.249616,-1.77886 z m 32.952239,0.30369 c 0.8168,-0.72561 -0.72163,-1.46424 -4.23839,-2.03493 -4.88825,-0.79326 -14.05309,0.46573 -16.31645,2.24142 -1.65131,1.29551 -0.61805,1.38735 9.13817,0.81216 6.05,-0.35667 11.1875,-0.81507 11.41667,-1.01865 z m 44.58333,-5.05595 c 6.09702,-1.29276 3.84356,-2.83377 -3.88185,-2.65457 -5.30758,0.12312 -7.32104,0.59881 -8.8017,2.07947 -1.89311,1.89312 -1.84604,1.91638 3.38186,1.67153 2.91593,-0.13657 7.10169,-0.62996 9.30169,-1.09643 z m 19,-0.3142 c 0.33992,-0.55 0.16803,-1 -0.38197,-1 -0.55,0 -1.27811,0.45 -1.61803,1 -0.33992,0.55 -0.16803,1 0.38197,1 0.55,0 1.27811,-0.45 1.61803,-1 z M 74.395289,125.99689 c 3.277769,-0.50758 4.309427,-1.88551 2,-2.6713 -0.6875,-0.23393 -2.6,-0.0851 -4.25,0.33062 -1.65,0.41577 -5.659591,1.06105 -8.910203,1.43396 -4.110916,0.4716 -5.480884,0.95689 -4.5,1.59406 1.295187,0.84134 7.565666,0.56612 15.660203,-0.68734 z m 93.250001,-3.41265 c 0,-1.14477 -1.42545,-1.14477 -5,0 -2.23115,0.71454 -2.09672,0.81136 1.25,0.90032 2.0625,0.0548 3.75,-0.35032 3.75,-0.90032 z m -40,-9 c 0,-0.55 -0.42344,-1 -0.94098,-1 -0.51754,0 -1.2191,0.45 -1.55902,1 -0.33992,0.55 0.0835,1 0.94098,1 0.85746,0 1.55902,-0.45 1.55902,-1 z m -38.250001,-2.56496 c 1.2375,-0.26022 2.25,-0.89722 2.25,-1.41554 0,-1.40593 -7.952041,-3.27908 -11.179957,-2.6335 -3.310018,0.662 -7.988523,3.53239 -7.375151,4.52483 0.440351,0.71251 12.299888,0.36643 16.305108,-0.47579 z m 73.250001,-2.93503 c 0,-0.825 -0.45,-1.5 -1,-1.5 -0.55,0 -1,0.675 -1,1.5 0,0.825 0.45,1.5 1,1.5 0.55,0 1,-0.675 1,-1.5 z m -90.581788,-5.10699 c 2.403437,-0.92228 1.889376,-2.39301 -0.836426,-2.39301 -3.274546,0 -5.691246,1.01387 -5.017026,2.10478 0.636775,1.03033 3.546238,1.17359 5.853452,0.28823 z M 61.090617,98.477735 c 3.314549,-0.92024 3.665908,-1.25174 2.19764,-2.07342 -1.908042,-1.0678 -11.642968,0.91295 -11.642968,2.368981 0,1.14619 4.792482,0.99623 9.445328,-0.295561 z m 30.963763,-1.39349 c -2.775962,-2.77597 -5.03187,-3.1023 -7.659091,-1.10796 -3.287402,2.4955 -1.99099,3.607961 4.204545,3.607961 h 5.954546 z m -1.909091,-6.11562 c 7.768721,-0.71074 11.687651,-2.19789 11.265061,-4.27487 -0.20957,-1.03003 -1.21633,-1.53618 -2.796269,-1.40582 -15.073708,1.24367 -18.338359,1.77498 -20.207763,3.28873 -2.906521,2.35356 -1.41854,4.39148 2.610251,3.57497 1.720796,-0.34875 5.82872,-0.8811 9.12872,-1.18301 z m 91.500001,1.02591 c 0,-1.40732 -4.71509,-4.3453 -7,-4.36171 -2.53265,-0.0182 -5.83543,1.48815 -4.97104,2.26721 0.25907,0.2335 2.72104,0.87977 5.47104,1.43616 6.66345,1.34817 6.5,1.33161 6.5,0.65834 z M 91.228173,57.718345 c -0.497867,-0.80556 -5.582884,-0.36612 -5.582884,0.48247 0,0.21089 1.376558,0.38343 3.059017,0.38343 1.682459,0 2.8182,-0.38966 2.523867,-0.8659 z M 458.39529,185.51615 c -3.73533,-1.97194 -5.39755,-4.82135 -2,-3.42842 0.9625,0.3946 3.55,0.93663 5.75,1.20451 7.76845,0.9459 11.94647,-5.57042 9.48839,-14.79877 -1.44353,-5.41944 -3.55046,-7.90923 -6.69304,-7.90923 -3.84107,0 -8.20365,-2.78646 -8.93696,-5.7082 -0.44782,-1.78424 -0.0374,-3.85445 1.23551,-6.23181 1.60296,-2.99382 2.51359,-3.61001 5.72589,-3.87452 3.83115,-0.31546 7.26371,1.39587 6.23794,3.0556 -0.3014,0.48768 -1.98337,0.75893 -3.58156,0.75893 -3.11299,0 -5.57539,2.99606 -4.58456,5.57814 0.7185,1.87236 7.41964,4.11371 7.67508,2.09383 0.29786,-2.35529 -8.55557,-13.71171 0.16614,-9.45459 2.87697,1.40427 7.76832,22.27874 7.76159,25.01388 -0.0109,4.4377 -2.2243,10.15251 -5.01177,12.93998 -3.41367,3.41367 -7.73659,3.66219 -13.23265,0.76071 z M 233.24051,171.41672 c -0.87737,-1.25262 -1.59522,-3.27167 -1.59522,-4.48677 0,-2.5254 -4.46479,-14.98633 -8.54399,-23.84571 -3.59513,-7.80805 -4.57934,-12.15276 -3.04201,-13.42863 2.02456,-1.68023 5.56418,-0.06 6.11287,2.79812 1.61971,8.43707 2.94896,12.48257 6.56689,19.98591 2.21583,4.59547 4.22493,8.15924 4.46468,7.91949 0.23975,-0.23975 0.51879,-1.74968 0.6201,-3.3554 0.44646,-7.07652 5.03004,-7.4582 8.03988,-0.66949 1.15828,2.6125 2.26383,4.28245 2.45678,3.71099 0.19294,-0.57146 0.45746,-6.86573 0.5878,-13.98728 0.19402,-10.60011 0.50902,-12.99569 1.737,-13.20974 3.62599,-0.63205 3.87124,0.77717 2.91441,16.74638 -0.51045,8.51931 -1.44704,17.17715 -2.08131,19.23965 -1.51309,4.9202 -4.27136,5.03021 -6.26865,0.25 -0.80432,-1.925 -1.8983,-3.5 -2.43107,-3.5 -0.53276,0 -1.79323,1.6875 -2.80102,3.75 -2.18291,4.46741 -4.55344,5.20016 -6.73714,2.08248 z m 26.87611,-3.04892 c -1.67533,-2.3119 -2.64373,-3.82417 -2.18362,-8.2823 0.57496,-5.57074 3.91127,-12.14762 6.5349,-12.88226 7.90161,-2.21253 9.6413,-1.52749 13.53662,5.33034 2.18583,3.84823 2.50093,4.06663 3.10794,2.15411 0.95045,-2.99461 7.39778,-7.10345 11.14628,-7.10345 2.41195,0 3.76192,0.80335 5.76663,3.43167 3.86384,5.06575 4.66348,7.82671 3.49375,12.06311 -1.19652,4.33344 -5.20004,6.43588 -11.25012,5.90798 -4.89439,-0.42707 -8.43433,-2.72274 -10.02237,-6.49957 l -1.23864,-2.94586 -2.43135,3.73921 c -2.84864,4.38097 -6.76637,8.18214 -11.49034,8.30346 -1.97259,0.0507 -3.81181,-1.61862 -4.96968,-3.21644 z m 13.65612,-7.28021 c 1.69693,-2.74758 1.49054,-5.5725 0.0102,-7.648 -0.78942,-1.10681 -2.50163,-1.41571 -3.85795,-1.32294 -1.95382,0.13363 -3.42764,-0.33828 -5.24626,2.64465 -2.5444,4.17336 -2.70362,10.34849 -0.30148,11.69279 2.29137,1.28232 6.92303,-1.36318 9.39553,-5.3665 z m 22.87255,2.49665 c 1.1,-1.1 2,-2.83429 2,-3.85398 0,-2.75859 -4.53088,-7.14602 -7.37967,-7.14602 -2.76341,0 -6.82358,3.89684 -6.62033,7.13486 0.1907,3.03814 3.62444,5.86514 7,5.86514 1.66667,0 3.88889,-0.88889 5,-2 z m 25.95499,0.87096 c -0.96378,-0.63995 -2.70897,0.55311 -4.04484,0.90596 -1.27345,0.33636 -2.46244,1.17541 -3.77938,1.1531 -1.88347,-0.0319 -3.9781,-0.53645 -5.34628,-1.83127 -2.11687,-2.00336 -3.28449,-3.52325 -3.28449,-8.1033 0,-4.4733 0.93202,-5.80293 2.92488,-7.6845 1.58876,-1.50003 3.65037,-2.39815 6.25,-1.97628 3.86561,0.6273 3.98762,0.16705 1.83594,-6.92574 -0.81904,-2.69991 -1.49404,-6.85443 -1.5,-9.23225 -0.009,-3.55823 0.29442,-4.26454 1.71397,-3.99116 2.09471,0.4034 5.14544,7.93453 5.22083,12.88825 0.0671,4.41248 0.53056,14.06224 3.43674,19.75882 2.6025,5.10133 -0.51897,8.2107 -3.42737,5.03837 z m -4.12385,-3.628 c 1.13235,-0.44707 1.78962,-2.01749 1.70144,-3.23171 -0.16774,-2.30966 -1.7332,-5.0235 -4.09069,-5.61519 -3.37564,-0.84723 -5.44189,1.47967 -5.44189,6.1284 0,5.10773 5.26102,3.73323 7.83114,2.7185 z m 33.81638,-10.85712 -1.46443,6.98437 c -1.03413,4.93214 -4.6939,7.28067 -6.64168,5.66416 -1.23978,-1.02893 -1.94353,-0.70992 -4.10765,1.86198 -3.10583,3.69107 -4.67086,3.89766 -6.31097,0.83308 -0.74761,-1.39692 -1.10121,-5.34084 -0.91898,-10.25 0.27295,-7.35334 0.46886,-8.004 2.49684,-8.29251 2.03912,-0.29011 2.22562,0.15028 2.541,6 l 0.34035,6.31308 1.42824,-3.25 c 1.43046,-3.25505 3.30448,-4.16783 4.51977,-2.20144 0.97457,1.57688 3.46728,-0.87101 3.48364,-3.421 0.0264,-4.11265 1.20386,-6.62756 3.10298,-6.62756 1.50489,0 2.56148,1.14781 1.91027,3.75 m 13.62871,-0.19911 c 5.68364,4.33513 4.01099,10.2735 -3.80571,13.51128 -3.86047,1.59906 -8.75817,-0.44293 -8.26549,-8.579 3.28431,-7.7035 7.51314,-8.40888 12.0712,-4.93228 z m -1.65561,6.47972 c 0,-0.90659 -0.37773,-2.76351 -1.40968,-3.57621 -1.76877,-1.39298 -2.45052,-0.59611 -3.5,-0.0361 -2.7401,1.46212 -2.80411,6.16857 -0.84032,6.84675 1.98933,0.68699 5.75,-1.4284 5.75,-3.2344 z m 45,7.96939 c -9.01265,-5.41208 -13.35285,-11.57549 -10.18195,-0.5 0.94057,3.28529 -3.6321,3.24065 -4.22908,0.25 -0.24702,-1.2375 -1.3806,-6.17122 -2.51905,-10.96381 -1.13846,-4.7926 -2.06992,-10.3426 -2.06992,-12.33333 0,-5.72077 2.3112,-3.66063 3.84764,3.42968 0.74121,3.42047 1.70266,6.08368 2.13656,5.91825 0.4339,-0.16544 2.32536,-2.32579 4.20323,-4.80079 3.77747,-4.97863 6.1376,-5.73664 6.6472,-2.13492 0.22636,1.59984 -0.69373,3.42608 -2.84369,5.64426 -1.83146,1.88959 -3.02856,4.05677 -2.82494,5.11413 0.32551,1.69024 8.43146,6.77474 15.084,9.46153 3.04831,1.23113 3.74287,3.93089 1,3.887 -0.9625,-0.0154 -4.88543,-0.95158 -8.25,-2.972 z m 15.08156,-1.36803 c -2.32199,-3.75707 -2.74332,-7.63197 -0.82984,-7.63197 1.61653,0 6.1594,8.52578 5.2913,9.93039 -1.12029,1.81267 -2.29454,1.20773 -4.46146,-2.29842 z m -48.35292,0.23605 c -1.32964,-0.74411 -1.72864,-2.31196 -1.72864,-6.79271 0,-8.35033 -1.60211,-11.6152 1.03005,-13.33986 1.96261,-1.28595 5.11626,-1.26212 7.63856,-0.56555 6.11303,1.68819 6.08946,4.04437 -2.30645,4.31972 -3.30902,0.10853 -1.32965,1.12579 -1.34685,9.20136 -0.0162,7.62739 -0.51923,8.72577 -3.28667,7.17704 z m 73.14366,-2.11802 c -1.33087,-1.2375 -3.19749,-3.36393 -4.14805,-4.72539 l -1.72829,-2.47539 c -1.85259,-0.1776 -3.90282,-1.34344 -5.11496,1.68122 1.70628,7.59183 -1.43229,5.76956 -1.92812,5.76956 -1.36799,0 -4.30028,-7.64612 -3.68438,-9.25115 0.29753,-0.77536 -0.4033,-5.1148 2.41737,-4.98704 3.71119,0.16809 2.81864,4.33819 3.81413,3.23819 3.16599,-3.49838 5.85524,-2.54461 9.86863,3.5 2.00849,3.025 4.0972,5.5 4.64158,5.5 0.54439,0 0.98979,0.9 0.98979,2 0,2.63956 -2.13193,2.53562 -5.1277,-0.25 z m -29.6723,-22.95 c -1.42755,-1.42755 -1.56164,-3.45846 -0.28062,-4.25017 1.17267,-0.72476 4.08062,2.14113 4.08062,4.0216 0,1.73971 -2.15899,1.86958 -3.8,0.22857 z m 75.40699,-3.38179 c -1.12412,-2.92941 -0.59518,-15.87339 0.8743,-21.3954 1.42304,-5.34752 1.40154,-5.53693 -0.90821,-8 -2.97346,-3.170834 -11.57308,-16.507415 -11.57308,-17.947915 0,-2.78253 3.16347,-0.52571 6.5533,4.67511 4.12573,6.32988 7.39219,10.250001 8.54086,10.250001 0.41004,0 1.46704,-3.172241 2.34889,-7.049431 1.77953,-7.824 5.25671,-14.1168 7.55695,-13.67617 2.17951,0.41751 1.80396,7.87076 -0.574,11.39186 -2.16047,3.19904 -4.38803,9.756495 -4.41082,12.984445 -0.008,1.18289 -1.13578,4.55789 -2.50541,7.5 -2.81034,6.03692 -3.24381,12.2581 -1.00977,14.49215 1.96111,1.9611 1.89919,2.57994 -0.57258,5.72228 -2.38094,3.02688 -3.46191,3.29035 -4.32043,1.05307 z M 242.89296,117.70447 c -6.49889,-2.24511 -8.76951,-4.25099 -11.98094,-10.58402 -4.71694,-9.301945 -6.064,-18.082115 -6.29584,-41.036205 -0.11665,-11.55 -0.15782,-21.7875 -0.0915,-22.75 0.13032,-1.89099 2.60639,-2.39104 3.63094,-0.73327 0.34561,0.5592 0.81418,8.7717 1.04129,18.25 0.57581,24.03186 1.21881,30.22039 3.96259,38.137671 2.85068,8.225764 7.06529,12.991754 12.76895,14.439504 4.90672,1.24546 6.76758,0.42808 9.65253,-4.23986 5.42049,-8.77053 5.15618,-40.378365 -0.55056,-65.841615 -0.45388,-2.02518 -0.17599,-2.90546 1.06788,-3.38278 2.6836,-1.02979 3.70798,0.92134 5.14268,9.7952 0.74029,4.57883 1.7895,10.35015 2.33159,12.82515 1.27773,5.83376 1.30889,26.59268 0.0529,35.27844 -1.24397,8.602915 -5.92707,18.125585 -9.93251,20.196875 -3.67606,1.90097 -4.33191,1.8794 -10.80005,-0.35509 z m 150.38719,-5.19281 c -1.44917,-1.13992 -2.63486,-2.71491 -2.63486,-3.49999 0,-1.91388 2.91772,-1.81186 5.11752,0.17894 1.63762,1.48202 2.00679,1.44131 4.7696,-0.52598 3.48748,-2.48331 4.76606,-5.58842 3.11854,-7.57356 -0.63777,-0.76847 -3.34032,-2.121544 -6.00566,-3.006825 -6.10514,-2.02781 -7.35716,-3.50681 -6.52593,-7.70905 1.37065,-6.92918 2.48932,-8.40572 8.5706,-11.3123 3.26263,-1.5594 6.12571,-2.64161 6.36241,-2.40491 0.23669,0.2367 0.72495,1.60414 1.08502,3.03876 0.6081,2.42285 0.36878,2.65413 -3.36418,3.25105 -4.39728,0.70315 -7.12792,3.54633 -7.12792,7.42167 0,1.91497 1.19942,2.88405 6.60085,5.33317 l 6.60084,2.992971 -0.67482,3.694324 c -0.88048,4.8202 -2.89364,7.83744 -6.8312,10.23831 -4.06438,2.47821 -5.7903,2.456 -9.06081,-0.11658 z m 45.439,-0.69972 c -3.41978,-3.41976 -5.48404,-10.13293 -4.76477,-15.495475 0.59777,-4.45671 6.61971,-12.37446 10.54726,-13.86771 1.43162,-0.5443 2.8893,-1.45296 3.23928,-2.01925 1.04764,-1.69511 4.58012,1.16662 8.5435,6.92126 4.11387,5.97316 5.11216,6.27582 2.85113,0.86441 -1.34763,-3.22533 -1.35511,-3.74557 -0.061,-4.24216 0.81123,-0.3113 1.85482,-0.33124 2.31908,-0.0443 0.46426,0.28693 3.25771,-0.79819 6.20766,-2.41138 2.94994,-1.61319 6.41664,-2.93307 7.70377,-2.93307 2.12896,0 2.40613,0.44784 2.32086,3.75 -0.0106,0.4125 -0.79815,0.75 -1.75,0.75 -2.33246,0 -8.88471,4.15615 -9.6351,6.11164 -0.59534,1.55142 1.50116,11.384845 3.52797,16.547635 0.74748,1.90402 0.71638,3.2714 -0.1095,4.81457 -1.60143,2.99228 -3.4414,1.24167 -4.98496,-4.74284 -0.67114,-2.60205 -1.69232,-5.993864 -2.26931,-7.537365 l -1.04906,-2.80636 -1.3896,2.86921 c -1.81204,3.741465 -13.17403,14.842695 -16.07831,15.709325 -1.70347,0.50831 -2.97156,-0.0408 -5.1689,-2.23812 z m 11.62333,-7.97769 c 2.92435,-3.1625 5.57883,-6.568065 5.89885,-7.567915 0.94217,-2.94373 -4.30882,-9.68209 -7.54495,-9.68209 -5.28812,0 -11.11191,9.22266 -10.27501,16.271705 0.41846,3.52459 3.10232,6.7283 5.63652,6.7283 0.53218,0 3.36024,-2.5875 6.28459,-5.75 z m -174.03052,9.08332 c -0.36667,-0.36666 -0.66667,-2.41958 -0.66667,-4.56204 0,-2.14247 -0.97828,-8.15419 -2.17395,-13.359395 -1.60759,-6.9984 -1.88149,-9.75646 -1.05135,-10.5866 1.71161,-1.7116 6.1749,1.67269 6.88438,5.22009 0.325,1.62504 0.81276,2.95462 1.0839,2.95462 0.27115,0 2.05926,-1.37521 3.97359,-3.05601 2.60542,-2.28759 4.273,-2.97906 6.63201,-2.75 3.76831,0.36591 5.77973,3.83515 8.00452,13.806015 0.79769,3.575 1.76198,7.47397 2.14286,8.66438 0.51119,1.59764 0.16312,2.4477 -1.32928,3.2464 -3.62726,1.94126 -4.84693,0.43943 -5.51942,-6.79628 -1.30785,-14.071965 -2.68347,-15.890995 -7.83798,-10.364505 -3.76152,4.032971 -4.86713,6.710775 -4.18301,10.131355 0.95529,4.77645 -0.27093,8.11864 -2.97866,8.11864 -1.27285,0 -2.61428,-0.3 -2.98094,-0.66667 z m 147.65626,-0.15538 c -0.58407,-0.37287 -1.82236,-5.17794 -2.75176,-10.67794 -0.92939,-5.500005 -2.00101,-10.315405 -2.38137,-10.700885 -0.38035,-0.38548 -2.43326,-0.30806 -4.56201,0.17205 -4.62433,1.04296 -6.62779,0.44711 -6.62779,-1.97117 0,-2.13256 1.92853,-3 6.66969,-3 h 3.50611 l -0.69554,-4.25 c -0.38254,-2.3375 -0.7596,-4.67328 -0.8379,-5.19061 -0.22621,-1.49464 3.31515,-1.85079 3.81129,-0.3833 0.24618,0.72815 0.95319,3.29592 1.57113,5.70615 l 1.12353,4.38225 5.41234,-0.5586 c 2.97679,-0.30723 5.61373,-0.23276 5.85987,0.1655 0.98074,1.58687 -1.28983,3.21059 -5.49304,3.92813 -2.43511,0.4157 -4.40604,1.19337 -4.37984,1.72815 0.2077,4.23891 1.85512,12.603215 2.56923,13.044565 1.28834,0.79624 1.02132,4.66236 -0.45623,6.60571 -0.70167,0.92288 -1.75364,1.37288 -2.33771,1 z m -118.0755,-1.42795 c -4.77029,-5.97802 -5.66759,-14.987435 -1.92592,-19.337395 1.79329,-2.08482 3.63474,-2.87713 8.09304,-3.48213 3.17434,-0.43077 6.00092,-1.01261 6.28129,-1.29298 0.28037,-0.28037 -0.61858,-6.05101 -1.99768,-12.82363 -2.72072,-13.36122 -3.99888,-23.17981 -3.13054,-24.04815 1.15397,-1.15397 4.23694,0.50992 5.31048,2.86609 0.61705,1.35427 1.1219,5.5863 1.1219,9.40452 0,4.61315 0.68637,8.70716 2.04586,12.20295 1.12522,2.8934 2.4436,8.9351 2.92974,13.426 0.66701,6.16174 1.53362,9.14709 3.53184,12.166615 2.5529,3.85768 2.58719,4.09407 0.95525,6.58472 -0.93099,1.42087 -2.03586,2.5834 -2.45526,2.5834 -1.21228,0 -2.67628,-2.2682 -3.38859,-5.25 -0.88911,-3.72186 -1.78176,-3.42936 -3.96193,1.29826 -2.65745,5.76256 -10.64931,9.16072 -13.40948,5.70173 z m 8.53834,-6.30625 c 3.07206,-3.72695 5.73626,-10.790075 4.70152,-12.464315 -1.0659,-1.72466 -7.12479,-1.05242 -9.85243,1.09315 -2.20021,1.73068 -2.63486,2.87363 -2.63486,6.928575 0,4.56679 1.71569,7.99885 3.99862,7.99885 0.47068,0 2.17489,-1.60032 3.78715,-3.55626 z m 53.75297,0.37476 c -0.84631,-2.84983 -1.53874,-6.618254 -1.53874,-8.374285 0,-1.75602 -0.68351,-5.13003 -1.5189,-7.4978 -1.63039,-4.62102 -1.01099,-5.89905 2.87454,-5.93111 1.02061,-0.008 3.19263,-1.14031 4.82673,-2.51531 3.35069,-2.81942 4.2105,-2.95621 8.71385,-1.38634 3.978,1.38674 3.5323,3.28061 -0.87331,3.71089 -3.73192,0.36448 -6.38546,2.99724 -8.10692,8.04342 -0.93058,2.72781 -0.82007,4.583 0.58137,9.760365 1.38519,5.11728 1.48373,6.68952 0.49405,7.88203 -2.2397,2.69866 -3.88588,1.58408 -5.45267,-3.69186 z m -19.04125,2.14563 c -7.47336,-1.53789 -13.54512,-8.485554 -13.4272,-15.364175 0.0951,-5.54931 0.79083,-6.93056 5.28507,-10.49292 5.14078,-4.07484 9.51767,-4.82757 14.30533,-2.46018 4.49175,2.22107 5.9201,6.01616 3.58736,9.53147 -2.54014,3.82782 -4.25859,4.72354 -10.39383,5.41767 -6.59052,0.74563 -7.43202,2.15652 -3.10422,5.204711 4.03855,2.844464 6.69381,3.409834 9.66222,2.057334 3.54411,-1.614804 5.11206,-0.10282 3.51906,3.39345 -1.27343,2.79485 -4.51072,3.72573 -9.43379,2.71264 z m 3.36763,-20.053105 c 1.23323,-1.14893 2.07093,-2.61143 1.86155,-3.25 -0.68329,-2.08389 -6.21366,-1.90307 -8.80358,0.28785 -2.3754,2.00944 -2.38488,2.07932 -0.48196,3.55045 2.6533,2.05124 4.77089,1.88343 7.42399,-0.5883 z"
       id="path33"
       sodipodi:nodetypes="sssssssscscsssssssccsssssssssssssscsssssssscssssscsscssssssccssscssssssssssssssscsscsssssssssssssssssscsssssssssssssssssssssscsssssssssssssscsssssssssscsssssscsssssssssssssssssssssssssssscsssssssssssssssssscsssssssssssssssssssssssssssssssssssssssssssssssssssssssssssssssssssssssssssscsssssssssssssssssssssssssssssssssssscsscsscscssssccsssssscssssssssssssssssssssssssssscssssssssssssssssssssssssssssssssscssscsssssssssssssssssssssssssssssssssssssssssssssssassssssssscsaasaasssssssasscaaasasscssscaassacssssssscsssscsscssssssssssssssssssssssssssssssssssccssssssssssssssssssssscsssscssssssssssssssccssssssssssssscsssssssssssssssssssscsssssssssssssssssssssssssssssssscsssscsssssssssssssssssssssssssssssssscssssssssssssssssssssss" />
  </g>
</svg>
