<?xml version="1.0" encoding="UTF-8"?>
<svg width="183.74mm" height="72.444mm" version="1.1" viewBox="0 0 183.74 72.444" xmlns="http://www.w3.org/2000/svg" xmlns:cc="http://creativecommons.org/ns#" xmlns:dc="http://purl.org/dc/elements/1.1/" xmlns:rdf="http://www.w3.org/1999/02/22-rdf-syntax-ns#"><metadata><rdf:RDF><cc:Work rdf:about=""><dc:format>image/svg+xml</dc:format><dc:type rdf:resource="http://purl.org/dc/dcmitype/StillImage"/><dc:title/></cc:Work></rdf:RDF></metadata><g transform="translate(-5.5223 -71.423)"><path d="m167.88 140.63c-0.45258-0.16287-0.92732-0.40234-1.055-0.53217-0.12767-0.12983-0.3065-0.23605-0.39739-0.23605-0.29491 0-1.4341-0.97998-1.4341-1.2337 0-0.16021 0.37046-0.14475 0.4721 0.0197 0.0458 0.0742 0.21801 0.13489 0.3826 0.13489s0.41897 0.0835 0.5653 0.18551c0.59713 0.41636 2.9715 0.5349 3.6382 0.18164 0.53017-0.28093 1.0325-0.84573 1.3416-1.5084 0.18834-0.40377 0.24418-0.81568 0.2286-1.6861-0.0205-1.1468-0.23992-2.6485-0.42447-2.9053-0.0533-0.0742-0.13824-0.30747-0.18872-0.51841-0.0505-0.21093-0.28645-0.58368-0.52442-0.82836-0.40653-0.41798-0.48849-0.44482-1.3577-0.44453-1.1347 5.3e-4 -1.4691-0.15198-2.5808-1.1762-0.38975-0.35906-0.45012-0.51312-0.53583-1.3671-0.0621-0.61916-0.047-0.99312 0.0425-1.0484 0.0765-0.0473 0.2715-0.3511 0.43335-0.67516 0.16185-0.32407 0.56546-0.81591 0.89693-1.093 0.59985-0.5014 0.60742-0.50347 1.6055-0.43942 0.6937 0.0445 1.0745 0.1348 1.2354 0.29292 0.12797 0.12572 0.35269 0.31093 0.49936 0.41159 0.22373 0.15352 0.24498 0.24488 0.13185 0.56706-0.12713 0.36202-0.18288 0.38553-0.97188 0.40972-0.46035 0.0141-0.87192-0.0308-0.9146-0.0999-0.0427-0.0691-0.25383 5e-3 -0.46922 0.16397-0.4119 0.30453-0.71079 0.93655-0.59078 1.2493 0.039 0.10169 6e-3 0.22496-0.0731 0.27393-0.0792 0.049-0.14408 0.14821-0.14408 0.22052 0 0.1906 0.92641 0.70797 1.2967 0.72418 0.36019 0.0158 0.53225-0.28087 0.31486-0.54283-0.22259-0.26819 0.073-0.707 0.51279-0.76115 0.88646-0.10916 1.7725 0.41137 1.7828 1.0473 2e-3 0.15275 0.0936 0.39554 0.20253 0.53955 0.10892 0.144 0.20035 0.35287 0.20317 0.46416 3e-3 0.11128 0.0872 0.35972 0.18762 0.55209 0.10038 0.19237 0.22556 0.5792 0.27818 0.85964 0.0526 0.28043 0.14695 0.60863 0.20968 0.72932 0.39021 0.75092 0.6053 2.8852 0.39591 3.9288-0.52767 2.63-1.6979 4.159-3.2668 4.2684-0.31145 0.0217-0.68766 0.0684-0.83604 0.10377-0.14837 0.0353-0.64006-0.069-1.0926-0.23184zm-121.34-1.879c-0.23646-0.33208-0.31448-0.63364-0.32657-1.2622-0.01767-0.91866-0.0991-1.132-0.43443-1.1383-0.65565-0.0123-0.95154-0.95432-0.45247-1.4405 0.37084-0.36124 0.66613-1.2567 0.59698-1.8103-0.03446-0.27595 0.0034-0.52978 0.0866-0.58123 0.20224-0.12499 0.18532-0.37784-0.04621-0.69034-0.17752-0.23961-0.209-0.24321-0.37093-0.0425-0.09732 0.12066-0.37254 0.25538-0.6116 0.29938-0.38025 0.07-0.47894 0.0219-0.78845-0.38386-0.27714-0.36335-0.43412-0.4545-0.72455-0.42068-0.63535 0.074-1.1403-0.5618-1.0007-1.2599 0.04511-0.22557 0.02891-0.41477-0.036-0.42045-0.06491-6e-3 -0.23942-0.0401-0.38779-0.0765-0.3357-0.0823-0.6916-0.0852-2.5972-0.021-1.1958 0.0403-1.5663 0.0995-1.7455 0.27861-0.29871 0.29871-0.18331 0.39044 0.55542 0.4415 0.33604 0.0232 0.68686 0.0891 0.7796 0.14644 0.09274 0.0573 0.67457 0.11612 1.293 0.13068 0.61838 0.0146 1.1582 0.0603 1.1995 0.10164 0.15394 0.15393-0.35636 0.49266-0.7422 0.49266-0.24274 0-0.43253 0.0851-0.48299 0.21664-0.06184 0.16115-0.17782 0.19269-0.45281 0.12313-0.20332-0.0514-1.1149-0.0889-2.0257-0.0833-1.227 8e-3 -1.7624 0.0652-2.0667 0.22256-0.41544 0.21483-0.65114 0.14707-0.96247-0.27669-0.1806-0.24582-0.10682-0.81368 0.13282-1.0222 0.12983-0.11298 0.42284-0.42014 0.65115-0.68258 0.2283-0.26244 0.5318-0.51334 0.67443-0.55756 0.6109-0.18939 1.2528-0.45399 1.4239-0.58694 0.10135-0.0788 0.36637-0.13382 0.58894-0.12235 0.22256 0.0115 0.51566-0.0331 0.65133-0.0991 0.13567-0.066 0.52918-0.14759 0.87448-0.18141 0.84461-0.0827 0.96477-0.24794 0.38156-0.52469-0.26463-0.12557-0.51608-0.33837-0.55877-0.47289-0.1485-0.46788-0.42894-0.58892-0.91009-0.3928-0.24118 0.0983-0.4992 0.24929-0.57339 0.33553-0.16652 0.19358-1.4158 0.42771-2.779 0.52081-0.564 0.0385-1.1216 0.10694-1.2392 0.15204-0.23189 0.089-0.1705 0.40335 0.1401 0.71748 0.15506 0.15682 0.1405 0.23159-0.09362 0.4808-0.15247 0.1623-0.27723 0.36705-0.27723 0.455 0 0.088-0.14873 0.15992-0.33051 0.15992s-0.38185 0.0917-0.44459 0.20385c-0.06486 0.11589-0.53882 0.29241-1.0984 0.40909-0.54138 0.11288-1.3489 0.38925-1.7944 0.61416-0.77849 0.39298-0.80706 0.42567-0.733 0.8386 0.04239 0.23632 0.11749 0.8394 0.16689 1.3402 0.0494 0.50076 0.14214 0.91048 0.20608 0.91048 0.19716 0 0.12828 0.84223-0.08846 1.0817-0.13008 0.14373-0.21699 0.55037-0.23836 1.1152-0.04256 1.1251-0.43736 1.7697-0.99775 1.629-0.41813-0.10495-0.76085-0.42548-1.0474-0.97956-0.26098-0.50468-0.25788-1.0043 0.01054-1.6999 0.35087-0.90931 0.43638-1.6463 0.21652-1.8661-0.1485-0.14849-0.15891-0.25705-0.04505-0.46979 0.10604-0.19815 0.10709-0.38448 0.0037-0.65645-0.07941-0.20887-0.13506-0.4-0.12366-0.42473 0.07329-0.15901-0.12818-0.12775-0.26882 0.0417-0.2157 0.25991-1.0318 0.26519-1.5213 0.01-0.29559-0.15419-0.46194-0.16259-0.80931-0.0409-0.38305 0.13424-1.7961 0.19083-2.7977 0.11205-0.18547-0.0146-0.50615-0.0153-0.71262-2e-3 -0.20814 0.0138-0.49992-0.0877-0.65487-0.22795-0.23038-0.20849-0.51389-0.25587-1.6142-0.26977-0.73408-9e-3 -1.3499-0.0321-1.3684-0.0507-0.01855-0.0186-1.4141-0.0487-3.1013-0.0669-1.7689-0.0191-3.1394-0.0897-3.2373-0.16677-0.29595-0.23319-0.88023-0.31102-1.2576-0.16754-0.40708 0.15477-0.6643 0.0344-1.3063-0.61128-0.48628-0.48907-0.49675-1.1152-0.02441-1.4592 0.46407-0.33795 1.9848-0.35519 2.3478-0.0266 0.16377 0.14821 0.35519 0.19749 0.5397 0.13893 0.15726-0.0499 0.37138-0.0198 0.47586 0.0669 0.10447 0.0867 0.25596 0.11684 0.33665 0.067 0.08069-0.0499 0.21992-0.0315 0.3094 0.0408 0.08948 0.0723 0.55724 0.17609 1.0395 0.23063 0.48222 0.0545 1.0232 0.1546 1.2022 0.22237 0.20792 0.0787 0.37531 0.0733 0.46352-0.0149 0.09415-0.0941 0.21762-0.066 0.38824 0.0884 0.22429 0.20297 0.38574 0.21026 1.5598 0.0703 0.72027-0.0858 1.4809-0.11995 1.6903-0.0758 0.62361 0.13152 1.003-0.16326 1.0116-0.78603 0.0042-0.30466-0.06123-0.54952-0.1529-0.57214-0.08814-0.0218-0.3727-0.11507-0.63236-0.20735-0.25966-0.0923-0.56315-0.16993-0.67443-0.17254-0.11128-3e-3 -0.35408-0.1367-0.53954-0.29799-0.43824-0.38111-1.7623-0.90679-2.2493-0.89303-1.6057 0.0454-2.5499-0.0481-2.8295-0.28018-0.11269-0.0935-0.32722-0.4303-0.47674-0.74838-0.41312-0.87887-0.19913-2.202 0.35613-2.202 0.08962 0 0.36134-0.27626 0.60382-0.61391 0.24248-0.33765 0.59281-0.75479 0.77852-0.92698 0.31037-0.28779 0.36827-0.2978 0.71678-0.12394 0.27456 0.13696 0.61492 0.16379 1.2339 0.0973 1.0717-0.11519 1.5807-0.11863 2.6408-0.0179 0.46298 0.044 0.87277 0.0299 0.91063-0.0314 0.03786-0.0613 0.37264-0.15317 0.74394-0.20424 0.60576-0.0833 1.5386-0.59122 1.1064-0.60236-0.34896-9e-3 -0.97085-0.6027-1.1241-1.0732-0.08646-0.26538-0.21668-0.52112-0.28939-0.56833-0.20042-0.13011-0.15844-0.71034 0.08699-1.2023 0.27242-0.54608 0.27201-0.55846-0.01686-0.51094-0.12983 0.0214-0.31379-0.01-0.4088-0.0695-0.09501-0.0596-1.0021-0.11776-2.0157-0.12929-1.7678-0.0201-1.8579-0.0348-2.2101-0.36042-0.20194-0.18669-0.39719-0.53588-0.43388-0.77597-0.05412-0.35412 0.0018-0.49418 0.29615-0.74187 0.35068-0.29509 0.44874-0.30481 2.9217-0.28952 1.4074 9e-3 2.6499 0.0494 2.7612 0.0905 0.40976 0.1513 1.5567 0.20133 1.7872 0.078 0.22114-0.11835 0.2227-0.15613 0.02241-0.54345-0.19739-0.3817-0.1972-0.43432 0.0023-0.63383 0.16818-0.16818 0.50011-0.21831 1.4622-0.22082 0.68452-2e-3 1.3186 0.0488 1.409 0.11251 0.09811 0.0691 0.50614 8e-3 1.0116-0.15096 0.46597-0.14669 1.2089-0.30633 1.6509-0.35474 0.44202-0.0484 0.93406-0.12076 1.0934-0.16076 0.16351-0.041 0.37572 0.0133 0.4871 0.12464 0.14086 0.14086 0.2646 0.15973 0.43224 0.0659 0.12919-0.0723 0.31772-0.0997 0.41896-0.0608 0.10124 0.0388 0.40656 9e-3 0.6785-0.0659 0.27193-0.0751 0.59513-0.0945 0.71821-0.0432 0.31439 0.13115 0.9791 0.14836 1.0539 0.0273 0.0344-0.0557 0.59007-0.10207 1.2348-0.10315 0.70294-1e-3 1.4114-0.0852 1.7695-0.20991 0.32845-0.11436 0.78369-0.23138 1.0116-0.26003 0.52485-0.066 1.1644-0.20154 1.4261-0.30232 0.11128-0.0429 0.25966-0.0643 0.32973-0.0478 0.07007 0.0166 0.25217-0.0293 0.40466-0.10196 0.45602-0.21731 1.4119-0.40277 1.6947-0.32881 0.32499 0.085 0.94304-0.0585 0.94304-0.21894 0-0.15154-0.54514-0.28657-1.4316-0.35459-0.46118-0.0354-0.87528-0.17116-1.2055-0.39523-0.27663-0.18773-0.58917-0.34132-0.69454-0.34132s-0.50661 0.29368-0.89165 0.65262c-0.70008 0.65262-0.70008 0.65262-1.9815 0.67967-0.70478 0.0149-1.6153 0.084-2.0233 0.15362-1.1598 0.19788-2.5387 0.21081-2.724 0.0256-0.08943-0.0894-0.26445-0.1626-0.38894-0.1626-0.12449 0-0.31583-0.13478-0.4252-0.2995-0.19271-0.29023-0.23145-0.29481-1.2515-0.14785-0.70388 0.1014-1.0926 0.22299-1.1731 0.36694-0.06627 0.11842-0.23886 0.2153-0.38355 0.2153s-0.26307 0.0899-0.26307 0.19976-0.16692 0.23735-0.37094 0.28329c-0.20401 0.046-0.58338 0.135-0.84304 0.1979s-0.86664 0.0839-1.3489 0.0465c-2.1554-0.16668-3.9765-0.0418-4.2489 0.29127-0.23799 0.291-2.1122 0.46795-2.199 0.20762-0.02701-0.081-0.15027-0.14761-0.27391-0.14798-0.12365-5.3e-4 -0.39188-0.13694-0.59607-0.30349-0.31658-0.25822-0.35524-0.36108-0.26251-0.69835 0.17717-0.64434 0.65778-0.89995 1.7924-0.95328 1.1172-0.0525 1.6817-0.1958 2.369-0.60132 0.25681-0.15152 0.63341-0.27549 0.83689-0.27549s0.42763-0.0546 0.49811-0.12143c0.07048-0.0668 0.64408-0.14266 1.2747-0.16861 0.63059-0.0259 1.2072-0.11068 1.2814-0.18829 0.32402-0.339 2.0665-0.6576 3.3721-0.61656 0.7832 0.0246 1.1706-0.14895 0.91128-0.40828-0.17468-0.17468-1.1138-0.18798-4.7555-0.0674-1.4399 0.0477-2.0092 0.0206-2.1582-0.10258-0.11128-0.0921-0.47547-0.24472-0.80931-0.33926-0.83555-0.23663-1.004-0.33709-1.0604-0.63237-0.02682-0.14042-0.13304-0.30385-0.23605-0.36318-0.10301-0.0593-0.18729-0.29094-0.18729-0.51469s-0.06878-0.53534-0.15284-0.69241c-0.12592-0.23527-0.10694-0.32282 0.10772-0.49695 0.14331-0.11625 0.30344-0.32335 0.35585-0.46022 0.05241-0.13688 0.21638-0.28053 0.36438-0.31923s0.26909-0.11761 0.26909-0.17535c0-0.10887 0.29499-0.16279 2.0551-0.37561 0.5739-0.0694 1.1202-0.18505 1.214-0.25702 0.49028-0.37624 1.6984-0.58779 3.0212-0.52905 0.7425 0.033 1.5581 0.0174 1.8125-0.0346 0.61742-0.12628 0.61635-0.47354-0.0016-0.53238-0.25527-0.0243-0.61247-0.16087-0.79378-0.30349s-0.4104-0.2593-0.5091-0.2593c-0.09869 0-0.39467-0.18898-0.65773-0.41994-0.41531-0.36465-0.50745-0.39573-0.69982-0.23605-0.31069 0.25789-2.7029 0.28355-3.1068 0.0333-0.16304-0.10098-0.39452-0.14596-0.51442-0.0999-0.22856 0.0877-0.46294-0.17138-0.91858-1.0154-0.28157-0.52159-0.21333-1.0281 0.18907-1.4032 0.14229-0.13266 0.3814-0.48167 0.53134-0.77559 0.26123-0.51206 0.43061-0.60158 1.0709-0.56595 0.1082 6e-3 0.30839-0.0488 0.44487-0.12186 0.25362-0.13573 1.501 0.0495 2.0561 0.30543 0.14837 0.0684 0.4592 0.14779 0.69072 0.17646 0.23152 0.0287 0.53501 0.11313 0.67443 0.1877 0.13941 0.0746 0.49627 0.23583 0.79302 0.35836 0.29675 0.12254 0.67334 0.28816 0.83688 0.36805 0.31166 0.15226 2.165-0.0674 2.6244-0.31107 0.1232-0.0653 0.66948-0.14636 1.214-0.18006 2.2629-0.14006 3.1641-0.23791 3.4425-0.37382 0.16192-0.079 0.38954-0.1072 0.50582-0.0626 0.13512 0.0519 0.21143 7e-3 0.21143-0.12492 0-0.11673-0.06496-0.16592-0.14983-0.11346-0.08241 0.0509-0.27968-0.0699-0.43838-0.26846-0.26454-0.331-0.36973-0.36128-1.2641-0.36381-0.53657-2e-3 -1.0383 0.036-1.1149 0.0833-0.0766 0.0473-0.54807 0.10785-1.0477 0.13447-0.49964 0.0266-1.0905 0.12044-1.3131 0.20849-0.54239 0.21457-1.2413 0.21965-1.8468 0.0134-0.38073-0.12967-0.53335-0.27684-0.64829-0.62512-0.08269-0.25054-0.19823-0.47462-0.25677-0.49796-0.05854-0.0233-0.14649-0.20602-0.19545-0.40596-0.07467-0.30491-0.01647-0.41886 0.36093-0.70672 0.44597-0.34016 0.45689-0.34139 1.2334-0.13914 0.80168 0.20881 1.2477 0.16202 1.4874-0.15606 0.18406-0.24422 1.8664-0.31265 2.0793-0.0846 0.17727 0.18987 0.68633 0.23001 0.68633 0.0541 0-0.063-0.27932-0.38987-0.62071-0.72644-0.6371-0.62812-1.3588-0.89106-1.7874-0.6512-0.11436 0.064-0.34114 0.0657-0.50397 4e-3 -0.16283-0.0619-0.96178-0.11157-1.7755-0.11037-1.384 2e-3 -1.5024-0.0191-1.8355-0.32783-0.19585-0.18152-0.35609-0.3946-0.35609-0.47353 0-0.28312-0.43195-0.56743-0.8621-0.56743-0.52791 0-1.2456-0.58524-1.3158-1.073-0.0384-0.26667 0.05737-0.39232 0.49185-0.64531 0.45329-0.26394 0.66892-0.30332 1.3489-0.24635 0.44512 0.0373 1.0521 0.0185 1.3489-0.0418 0.53954-0.1096 0.53954-0.1096 0.18015-0.25781-0.19767-0.0815-0.39519-0.25792-0.43893-0.39199-0.04375-0.13408-0.45866-0.43193-0.92202-0.6619-0.7201-0.35738-0.86799-0.4943-1.0181-0.94257-0.2236-0.66766-0.05236-1.0832 0.54688-1.3269 0.4066-0.16539 2.4769-0.40513 3.1695-0.36705 0.4305 0.0237 0.35999-0.25437-0.17785-0.70129-0.46186-0.38378-0.46186-0.38378-1.0934-0.1686-0.81216 0.27673-0.9227 0.27161-1.3762-0.0637-0.36159-0.26734-0.41615-0.51741-0.30041-1.3768 0.01678-0.1246 0.63812-0.38475 1.046-0.43795 0.75406-0.0983 0.85646-0.19365 0.85646-0.7971 0-0.44771 0.08167-0.66117 0.3591-0.9386 0.3591-0.3591 0.3591-0.3591 0.01115-0.72654-0.2201-0.23243-0.38156-0.59688-0.43942-0.99185-0.08783-0.59962-0.07494-0.63265 0.32471-0.83202 0.22889-0.11419 0.59315-0.24648 0.80945-0.29399 0.37253-0.08182 0.39338-0.12334 0.39515-0.78661 0.0011-0.38512 0.0427-0.98208 0.09261-1.3266 0.05513-0.38042 0.03162-0.73666-0.05993-0.90772-0.12358-0.23092-0.08944-0.37852 0.18989-0.82101 0.18731-0.29672 0.34056-0.60023 0.34056-0.67448 0-0.22161 0.97942-0.38381 1.4163-0.23456 0.14837 0.05069 0.44036 0.39647 0.64887 0.7684 0.32167 0.57379 0.36532 0.76808 0.28818 1.2825-0.05001 0.33347-0.14003 0.60631-0.20004 0.60631s-0.1767 0.2048-0.25931 0.4551c-0.11306 0.34257-0.10992 0.54349 0.01267 0.81255 0.19879 0.4363 0.57669 0.54373 1.5048 0.42777 0.84742-0.10588 1.7142 0.18534 1.7142 0.57593 0 0.34366-0.60943 0.88482-0.87966 0.78112-0.30982-0.11889-0.73896 0.14583-0.73896 0.45583 0 0.36643-0.72198 0.70981-1.3637 0.64861-0.46433-0.04428-0.53311-0.01041-0.648 0.31916-0.08037 0.23055-0.3039 0.44198-0.59658 0.56427-0.50302 0.21017-0.70228 0.58593-0.55567 1.0479 0.08587 0.27054 0.15412 0.28337 1.1191 0.21039 1.3933-0.10538 2.186 0.088 3.0697 0.74888 0.65643 0.49091 0.72871 0.5954 0.72871 1.0534 0 0.44112-0.07497 0.56359-0.56612 0.92478-0.31136 0.22898-0.72778 0.41633-0.92538 0.41633-0.19759 0-0.58612 0.15395-0.86339 0.34211-0.32386 0.21978-0.59943 0.31186-0.77064 0.25752-0.39878-0.12656-1.0205 0.18502-1.1142 0.5584-0.04496 0.17914-0.14129 0.32571-0.21406 0.32571-0.07277 0-0.25371 0.12139-0.40209 0.26977-0.14837 0.14837-0.42342 0.26977-0.61122 0.26977-0.1878 0-0.37819 0.0958-0.4231 0.21279-0.16151 0.42088 0.25024 0.57185 1.7734 0.65023 1.2201 0.0628 1.549 0.1265 1.8671 0.36171 0.33003 0.244 0.46154 0.26637 0.90462 0.1539 0.30436-0.0772 0.75875-0.0851 1.1004-0.0191 0.32004 0.0619 0.83628 0.11513 1.1472 0.11836 0.31092 3e-3 0.59866 0.0598 0.63943 0.12581 0.04077 0.066 0.23475 0.16026 0.43105 0.20953 0.45726 0.11477 1.116 0.61777 1.5139 1.156 0.29395 0.3976 0.30001 0.44612 0.10619 0.85069-0.11305 0.23598-0.34559 0.51941-0.51676 0.62984-0.35473 0.22887-1.8888 0.51556-2.8403 0.53081-0.78201 0.0125-0.82902 0.21279-0.10116 0.43086 0.29675 0.0889 0.53954 0.20538 0.53954 0.25882 0 0.0534 0.18415 0.17345 0.40923 0.26668 0.22508 0.0932 0.52723 0.31953 0.67146 0.50288 0.21817 0.27736 0.23507 0.38194 0.1006 0.62245-0.0889 0.15899-0.22923 0.47784-0.31185 0.70855-0.12388 0.34593-0.11328 0.44277 0.06046 0.55237 0.15875 0.10013 0.27201 0.0549 0.4595-0.18343 0.25307-0.32173 1.0385-0.45643 1.0385-0.17809 0 0.076 0.15175 0.19592 0.33721 0.26643 0.18547 0.0705 0.34172 0.17524 0.34724 0.23271 0.0055 0.0575 0.03709 0.25162 0.07017 0.43143 0.06815 0.37042-0.17652 1.2243-0.35082 1.2243-0.06315 0-0.34676 0.22062-0.63025 0.49027-0.48921 0.46532-0.56688 0.49187-1.5271 0.52202-1.4713 0.0462-2.1586 0.19123-2.1561 0.45497 0.0034 0.36369 0.21744 0.60355 0.42123 0.47214 0.10103-0.0652 0.57823-0.12495 1.0604-0.13291 0.48222-8e-3 1.548-0.0599 2.3684-0.11548 1.4917-0.10101 1.4917-0.10101 2.5143 0.72166 0.56245 0.45247 1.058 0.91487 1.1013 1.0276 0.12968 0.33792-0.20622 0.88099-0.71631 1.1581-0.26358 0.14321-0.57029 0.31755-0.68157 0.38743-0.50228 0.31545-1.981 0.81431-2.4137 0.81431-0.20922 0-0.29023 0.0688-0.2602 0.22088 0.04741 0.24011 1.0769 0.55909 1.958 0.60668 0.60082 0.0324 0.79545 0.15793 1.0708 0.69036 0.18106 0.35012 0.1798 0.42525-0.01201 0.71797-0.11782 0.17982-0.29446 0.32694-0.39253 0.32694-0.09807 0-0.28947 0.12283-0.42534 0.27296-0.16848 0.18617-0.29092 0.22906-0.3851 0.13488-0.41145-0.41145-0.58676 0.23418-0.2248 0.82789 0.30983 0.50819 0.34951 1.0172 0.11877 1.5236-0.08624 0.18927-0.1197 0.38123-0.07436 0.42657 0.04534 0.0453 0.40422 0.0817 0.7975 0.0809 0.39328-7.9e-4 0.77576 0.0449 0.84995 0.10173 0.07419 0.0568 0.36177 0.14413 0.63907 0.19409 0.31319 0.0564 0.56238 0.19959 0.65782 0.37791 0.0845 0.15789 0.32803 0.43382 0.54118 0.61317 0.21315 0.17936 0.38754 0.37675 0.38754 0.43865 0 0.28999-0.71444 0.93164-1.0523 0.94511-0.20019 8e-3 -0.91026 0.0313-1.5779 0.0517-0.66768 0.0205-1.305 0.0727-1.4163 0.11611-0.34562 0.13474-1.1121 0.33122-1.9558 0.50133-0.44512 0.0898-1.0541 0.24846-1.3534 0.35271-0.29923 0.10424-0.64824 0.18953-0.77559 0.18953-0.30762 0-0.29197 0.11015 0.05561 0.39161 0.20313 0.16448 0.30671 0.43603 0.35398 0.928 0.0631 0.65667 0.08143 0.68525 0.32856 0.51216 0.14395-0.10083 0.37015-0.15497 0.50267-0.12032 0.13252 0.0346 0.32586-0.0197 0.42965-0.12086 0.20586-0.20057 1.3113-0.22417 1.8748-0.04 0.35616 0.11639 0.44268 0.13292 1.6186 0.3091 0.62329 0.0934 0.80116 0.0708 1.1128-0.14157 0.37969-0.2587 0.492-0.77863 0.25052-1.1598-0.38122-0.60169 0.44615-1.0311 1.711-0.88799 0.88574 0.1002 1.1914-6e-3 1.8462-0.64021 0.22102-0.21415 0.55486-0.4259 0.74187-0.47055 0.18701-0.0447 0.52212-0.17314 0.74468-0.28553 0.22256-0.11238 0.6551-0.22521 0.96119-0.25073 0.7161-0.0597 1.5686-0.41567 1.4982-0.62558-0.07208-0.21497-1.5165-0.18342-1.7845 0.039-0.10969 0.091-0.28734 0.13179-0.39478 0.0906-0.10743-0.0412-0.21696-0.0101-0.24339 0.0692-0.02643 0.0793-0.22762 0.14326-0.44709 0.14216-0.21947-1e-3 -0.45974 0.0465-0.53392 0.10575-0.07419 0.0593-0.42415 0.0749-0.7777 0.0348-0.56582-0.0642-0.6684-0.12686-0.85641-0.52306-0.2838-0.59808-0.30855-1.2686-0.05196-1.4081 0.53763-0.2923 0.72189-0.33566 2.4179-0.56888 0.89093-0.12252 1.2891-0.2343 1.3307-0.37354 0.13656-0.45781 1.0935-0.75082 1.3096-0.40102 0.04585 0.0742 0.1322 0.13489 0.19189 0.13489 0.14262 0 0.81975-0.67924 0.81975-0.8223 0-0.0611-0.23965-0.18288-0.53256-0.27063-0.41198-0.12343-0.62126-0.12282-0.92432 3e-3 -0.32884 0.13621-0.52368 0.11783-1.2131-0.11441-0.45173-0.15218-0.90591-0.24423-1.0093-0.20456-0.26176 0.10045-0.72686-0.33846-0.82723-0.78066-0.09087-0.40033 0.28084-0.91252 0.66225-0.91252 0.11128 0 0.20233-0.0836 0.20233-0.18582 0-0.26529 0.35695-0.54004 0.46805-0.36028 0.11689 0.18913 0.65323 0.18017 0.84756-0.0142 0.08557-0.0856 0.33946-0.15036 0.56418-0.14397 0.22472 6e-3 0.43402-0.0298 0.4651-0.0805 0.03108-0.0506 0.62395-0.0617 1.3175-0.0246 1.1973 0.064 1.2632 0.0834 1.3057 0.38373 0.02463 0.17398-0.0289 0.49419-0.11895 0.7116-0.1388 0.3351-0.12871 0.434 0.06631 0.64949 0.12653 0.13981 0.39216 0.29489 0.5903 0.34461 0.19814 0.0497 0.43647 0.15367 0.52962 0.23099 0.20149 0.16722 0.22706 0.64706 0.03448 0.64706-0.07419 0-0.13517 0.0759-0.13551 0.1686-0.0011 0.27822-0.80224 1.0454-1.0918 1.0454-0.3413 0-0.9481 0.6759-0.84766 0.9442 0.04166 0.11128 0.10251 0.35408 0.13523 0.53955 0.03272 0.18546 0.14281 0.55135 0.24465 0.81307 0.1561 0.40118 0.15648 0.54409 0.0024 0.91049-0.16974 0.40368-0.16397 0.43461 0.08101 0.43461 0.14506 0 0.49025 0.12139 0.76708 0.26977 0.27684 0.14837 0.5757 0.26976 0.66415 0.26976 0.08845 0 0.28322 0.15562 0.43284 0.34583 0.2798 0.35571 0.25085 0.71277-0.07367 0.90857-0.30355 0.18315-0.20615 0.49911 0.15386 0.49911 0.54777 0 1.2581 0.41636 1.4337 0.84036 0.14335 0.34607 0.12828 0.42733-0.12657 0.68217-0.17422 0.17422-0.46402 0.29112-0.7285 0.29387-0.4392 5e-3 -0.4392 5e-3 -0.48033 0.81387-0.02262 0.44513-0.09849 0.86699-0.1686 0.93747-0.2243 0.22546-0.13685 0.37787 0.17067 0.29745 0.16399-0.0429 0.56247-0.0114 0.88552 0.0699 0.74768 0.18826 0.98027 0.0193 0.69843-0.5073-0.17583-0.32853-0.16529-0.37297 0.14436-0.60825 0.18372-0.1396 0.42508-0.33763 0.53637-0.44006 0.19076-0.17561 0.86992-0.35822 1.3736-0.36934 0.12488-3e-3 0.29923-0.092 0.38745-0.19826 0.08822-0.10631 0.23343-0.19327 0.3227-0.19327 0.08926 0 0.30595-0.15292 0.48152-0.33981 0.17557-0.18689 0.5963-0.51759 0.93493-0.7349 0.54453-0.34943 0.67797-0.38128 1.1543-0.27554 0.62977 0.13979 2.3758 0.0907 2.6428-0.0744 0.10128-0.0626 0.2914-0.1217 0.4225-0.13137 0.31502-0.0232 0.42269-0.14351 0.3025-0.33798-0.06613-0.10699-0.27841-0.12661-0.65421-0.0605-0.30598 0.0539-1.4141 0.11622-2.4626 0.13859-1.6078 0.0343-1.9918 0.0843-2.4522 0.31919-0.6702 0.34191-1.5831 0.32261-2.4735-0.0523-0.50613-0.2131-0.65516-0.35512-0.77194-0.73566-0.18553-0.6045 0.05491-1.01 0.68187-1.1501 0.79701-0.17803 5.0051-0.21568 5.3348-0.0477 0.24018 0.12233 0.41105 0.10384 0.84389-0.0914 0.48404-0.21827 1.0414-0.26632 2.3558-0.20306 0.14496 7e-3 0.32705 0.0652 0.40466 0.12931 0.07761 0.0641 0.45813 0.17412 0.84561 0.24438 0.61084 0.11077 0.73407 0.0951 0.92684-0.11791 0.20287-0.22417 0.2632-0.2286 0.68922-0.0506 0.61125 0.25539 2.6694 0.24193 2.8859-0.0189 0.17664-0.21284 0.12095-0.24157-0.8901-0.45933-0.37094-0.0799-0.89965-0.30052-1.1749-0.49029-0.62789-0.43285-2.1324-0.73159-3.1727-0.62998-1.3757 0.13437-3.1964 0.14414-3.5343 0.019-0.24434-0.0905-0.35693-0.0707-0.4398 0.0774-0.14616 0.26117-1.3956 0.18071-1.7175-0.11058-0.17691-0.16011-0.51755-0.20083-1.5018-0.17951-1.1569 0.0251-1.313-2e-3 -1.7114-0.29712-0.24111-0.17859-0.43838-0.39615-0.43838-0.48348 0-0.19756 0.52134-0.87311 0.64846-0.84026 0.05138 0.0133 0.22769-0.0216 0.39181-0.0775 0.16868-0.0575 0.42112-0.036 0.5807 0.0494 0.24158 0.12929 0.32497 0.0963 0.57797-0.22858 0.49025-0.62953 1.2259-1.2551 1.4767-1.2558 0.12983-5.3e-4 0.23605-0.0708 0.23605-0.15652 0-0.0857 0.15199-0.35515 0.33775-0.5987 0.38727-0.50773 0.25227-0.70379-0.32109-0.4663-0.51982 0.21531-1.078-0.0189-1.2724-0.53395-0.08374-0.22184-0.19964-0.40335-0.25756-0.40335-0.05792 0-0.10405-0.10622-0.10251-0.23605 4e-3 -0.33848 1.4502-1.2203 2.1685-1.3222 0.32661-0.0464 0.86697-0.16457 1.2008-0.26272 0.33384-0.0982 1.1382-0.21123 1.7875-0.25128 0.64929-0.0401 1.2763-0.12643 1.3933-0.19194 0.13962-0.0781 0.52226-0.0128 1.1125 0.19006 0.49484 0.17003 0.9966 0.31173 1.115 0.31488 0.11843 3e-3 0.40907 0.10238 0.64587 0.22051 0.50721 0.25303 0.82488 0.17179 0.82488-0.21095 0-0.19049-0.16227-0.34471-0.53063-0.50429-0.29185-0.12644-0.59242-0.3655-0.66794-0.53125s-0.24645-0.31102-0.37985-0.32282c-0.97148-0.086-1.665 3e-3 -2.3333 0.298-0.79591 0.35182-1.8884 0.5008-1.8884 0.25753 0-0.0799-0.15175-0.1452-0.33721-0.1452-0.36144 0-0.40624-0.0866-0.20738-0.4011 0.07014-0.1109 0.07384-0.23082 0.0084-0.27127-0.06452-0.0399-0.07501-0.27936-0.02331-0.53217 0.0736-0.35987 0.16482-0.46487 0.42017-0.48369 0.17939-0.0132 0.41293-0.15471 0.51898-0.31443 0.10605-0.15972 0.26903-0.2904 0.36218-0.2904 0.09315 0 0.25264-0.10035 0.35443-0.22299 0.10179-0.12265 0.36719-0.30237 0.58978-0.39938 0.38407-0.16739 0.35312-0.17783-0.60693-0.20473-1.4724-0.0413-1.4893-0.0434-1.592-0.20105-0.12758-0.19575-1.342-0.34908-1.445-0.18243-0.10779 0.17441-0.33512 0.16841-0.33512-9e-3 0-0.0772-0.13152-0.31825-0.29228-0.53568-0.2607-0.35262-0.27536-0.4518-0.13569-0.91799 0.13943-0.46537 0.23087-0.54665 0.83419-0.7415 0.47135-0.15223 0.77649-0.18124 1.0025-0.0953 0.1787 0.0679 0.62179 0.13707 0.98465 0.15363 0.5535 0.0253 0.72707-0.0299 1.0778-0.34233 0.37502-0.33415 0.40387-0.41296 0.28061-0.76654-0.16873-0.48404-0.06486-0.79538 0.26538-0.79538 0.13682 0 0.42323-0.1821 0.63646-0.40466 0.25085-0.26183 0.5216-0.40466 0.76711-0.40466 0.20868 0 0.37942-0.0634 0.37942-0.1408s-0.07587-0.1254-0.16861-0.10658c-0.09273 0.0188-0.30874-0.0433-0.48001-0.13796-0.37902-0.20954-0.99468-0.0949-1.2996 0.242-0.19834 0.21917-0.28453 0.22783-0.78958 0.0794-0.40093-0.11787-0.57917-0.24852-0.60875-0.4462-0.02299-0.15375-0.12922-0.35208-0.23605-0.44073-0.28233-0.23432-0.25182-0.8026 0.04309-0.8026 0.13053 0 0.31314-0.1214 0.4058-0.26977 0.09266-0.14837 0.25901-0.26977 0.36966-0.26977 0.11065 0 0.20119-0.0607 0.20119-0.13489 0-0.0742 0.1214-0.13488 0.26977-0.13488 0.32065 0 0.34134-0.24204 0.07514-0.87915-0.1673-0.40042-0.16796-0.48977-0.0047-0.63637 0.43868-0.39387 0.57602-0.4826 0.81951-0.52947 0.21575-0.0415 0.25847-0.17559 0.26857-0.84281 0.01249-0.82563 0.26524-1.2251 0.67553-1.0676 0.10407 0.0399 0.18922 5e-3 0.18922-0.0767 0-0.0821 0.12353-0.14932 0.27452-0.14932 0.15098 0 0.40895-0.0842 0.57326-0.18719 0.16431-0.10295 0.52309-0.22648 0.79728-0.27451 0.41534-0.0728 0.52305-0.0415 0.64545 0.18718 0.09851 0.18407 0.28259 0.27452 0.55868 0.27452 0.40887 0 0.41113 4e-3 0.3202 0.57326-0.05036 0.3153-0.18006 0.64283-0.28821 0.72784-0.10816 0.085-0.20652 0.40211-0.21858 0.70466-0.01222 0.30654-0.09889 0.57963-0.19574 0.61679-0.26371 0.10119-0.20771 0.58577 0.07818 0.6765 0.57606 0.18284 1.0961 1.324 0.82995 1.8213-0.13456 0.25142 0.06554 0.67975 0.31755 0.67975 0.09466 0 0.30842 0.1451 0.47502 0.32243 0.27654 0.29436 0.29482 0.40453 0.20999 1.2654-0.0511 0.51862-0.1313 1.0015-0.17823 1.073-0.15495 0.23629-2.2695 1.2923-2.4118 1.2044-0.1603-0.0991-0.97826 0.28317-0.97826 0.45716 0 0.0847 0.1214 0.18577 0.26977 0.22457 0.14837 0.0388 0.26977 0.11811 0.26977 0.17625 0 0.0581 0.31867 0.18165 0.70815 0.27449 0.38948 0.0928 0.83585 0.25181 0.99193 0.35327 0.27501 0.17876 1.0695 0.29463 2.1104 0.30777 0.35686 5e-3 0.50582 0.066 0.50582 0.20872 0 0.11128 0.04992 0.20233 0.11093 0.20233 0.14399 0 0.83327 1.0521 0.83327 1.2719 0 0.0927 0.14702 0.23555 0.3267 0.31742 0.56568 0.25775 0.88727 0.61624 0.88727 0.98909 0 0.19813-0.08439 0.39262-0.18753 0.43221-0.21753 0.0835-0.75667-0.37256-0.75667-0.64003 0-0.19857-0.77983-0.36922-0.88793-0.19431-0.0367 0.0594-0.25461 0.0704-0.48423 0.0245-0.32224-0.0645-0.40311-0.0404-0.35446 0.10558 0.03467 0.10399 0.20972 0.18908 0.389 0.18908 0.17929 0 0.40618 0.0759 0.50422 0.16861 0.09803 0.0927 0.25231 0.1686 0.34283 0.1686 0.24388 0 0.638 0.93983 0.47323 1.1285-0.07345 0.0841-0.25046 0.35019-0.39334 0.5913-0.14289 0.2411-0.34432 0.43837-0.44763 0.43837-0.35632 0-1.2426 0.4398-1.0301 0.51116 0.11128 0.0374 0.24623 0.14179 0.29988 0.23206 0.06011 0.10112 0.47428 0.17306 1.0791 0.18742 2.5778 0.0612 2.9063 0.1807 2.9645 1.0782 0.06327 0.97497-0.08354 1.1915-0.8871 1.3082-0.89568 0.13009-1.9927 0.089-2.1627-0.081-0.0735-0.0735-0.42142-0.13364-0.77314-0.13364-0.35172 0-0.6792-0.0643-0.72774-0.14279-0.05045-0.0816-0.25508-0.10614-0.4778-0.0572-0.29591 0.065-0.60792-0.0304-1.2979-0.39676-0.49958-0.26528-1.0165-0.48232-1.1488-0.48232-0.13226 0-0.24046-0.0542-0.24046-0.12055 0-0.1858-1.0145 0.0833-1.7838 0.47312-0.54478 0.27607-0.79831 0.32937-1.2468 0.2621-0.45451-0.0682-0.63407-0.0285-0.93168 0.20556-0.43848 0.34491-0.44926 0.88433-0.01669 0.83522 0.14834-0.0168 0.39474 0.0328 0.54755 0.11022 0.18321 0.0929 0.58218 0.10009 1.1714 0.0211 1.1637-0.1559 2.2457-0.13657 2.3665 0.0423 0.05277 0.0781 0.30838 0.2206 0.56804 0.31661 0.25965 0.096 0.5935 0.22554 0.74187 0.28785 0.14837 0.0623 0.58249 0.14685 0.96471 0.18788 0.38221 0.041 0.78719 0.10999 0.89994 0.15326 0.11275 0.0433 0.33502 9e-3 0.49393-0.076 0.21583-0.11551 0.33566-0.11584 0.47362-1e-3 0.14026 0.11642 0.26417 0.10119 0.51522-0.0633 0.1818-0.11912 0.38314-0.20221 0.4474-0.18463 0.06427 0.0176 0.25178-0.014 0.41669-0.0701 0.19691-0.067 0.50946-9e-3 0.91048 0.16803 0.53433 0.23636 0.61064 0.32222 0.61064 0.68709 0 0.53348-0.32043 1.0202-0.84347 1.2811-0.5036 0.25123-0.50539 0.25128-0.50539 0.0123 0-0.33958-0.51799-0.38666-0.9823-0.0893-0.2387 0.15289-0.35813 0.279-0.2654 0.28025 0.09273 1e-3 0.16861 0.0831 0.16861 0.18181 0 0.0987 0.16692 0.26567 0.37094 0.37094s0.43163 0.26047 0.50582 0.34489c0.07419 0.0844 0.68117 0.19447 1.3489 0.24456 0.66768 0.0501 1.3902 0.17828 1.6056 0.28488 0.21541 0.1066 0.45821 0.19512 0.53954 0.1967 0.08134 2e-3 0.3077 0.22921 0.50302 0.50582 0.3211 0.45473 0.3402 0.5482 0.19929 0.97504-0.13731 0.41594-0.20363 0.46704-0.55747 0.42955-0.22089-0.0234-0.56921-0.12532-0.77405-0.22646-0.35372-0.17466-0.3827-0.16405-0.57673 0.21116-0.11237 0.21729-0.27861 0.39971-0.36944 0.40539-0.36117 0.0226-0.67845 0.11338-1.1075 0.31698-0.24712 0.11727-0.5459 0.17615-0.66395 0.13086-0.11805-0.0453-0.32086-0.0365-0.45069 0.0196-0.12983 0.0561-0.36485 0.0896-0.52227 0.0745-0.48411-0.0464-0.4901 0.34598-0.0082 0.53648 0.23612 0.0933 0.53737 0.26184 0.66944 0.37442 0.1814 0.15465 0.32987 0.17308 0.60699 0.0754 0.30799-0.10861 0.41432-0.0782 0.66275 0.18923 0.20143 0.21689 0.38079 0.29166 0.5618 0.2342 0.17716-0.0562 0.326 1e-3 0.44597 0.17148 0.09904 0.14073 0.31664 0.29902 0.48357 0.35176 0.33729 0.10656 0.36114 0.19334 0.17719 0.64462-0.06946 0.17041-0.1621 0.53127-0.20586 0.80191-0.07628 0.47177-0.09965 0.4902-0.56669 0.44679-0.26792-0.0249-0.55161-0.10976-0.63043-0.18858-0.07882-0.0788-0.30677-0.1433-0.50655-0.1433-0.20555 0-0.39851-0.0919-0.44446-0.21163-0.05475-0.14267-0.17143-0.18299-0.35812-0.12374-0.1523 0.0483-0.36505 0.0147-0.47277-0.0747s-0.19604-0.10959-0.19626-0.0449c-2.64e-4 0.0647-0.31889 0.11854-0.70815 0.11958-0.38926 1e-3 -0.82915 0.0559-0.97752 0.1219-0.14838 0.066-0.36852 0.10811-0.48921 0.0936-0.1207-0.0145-0.2545 0.065-0.29736 0.17663-0.08532 0.22234 0.51801 0.3985 1.1287 0.32959 0.41288-0.0466 1.5463 0.12497 2.0858 0.31575 0.85975 0.30402 1.4095 0.58513 1.4128 0.72243 0.0019 0.0787 0.13226 0.2814 0.28964 0.45035 0.257 0.27586 0.26731 0.34242 0.10116 0.65328-0.10175 0.19036-0.38227 0.42858-0.62338 0.52938-0.51532 0.21545-0.52024 0.23538-0.16861 0.6824 0.30554 0.38843 0.35172 0.92024 0.10116 1.1649-0.35008 0.3419-0.9993 0.52156-1.2712 0.35175-0.20742-0.12953-0.34966-0.10623-0.76063 0.12459-0.27802 0.15616-0.68973 0.28393-0.91491 0.28393-0.4717 0-0.93123 0.21133-0.93123 0.42825 0 0.19482 0.41488 0.5062 0.68174 0.51165 0.1153 2e-3 0.47949 0.17211 0.80931 0.37719 0.54826 0.34095 0.67484 0.36556 1.4764 0.2871 0.48222-0.0472 0.95489-0.0559 1.0504-0.0193 0.0955 0.0366 0.27759-0.0237 0.40466-0.1339 0.14765-0.12806 0.404-0.17844 0.71034-0.13958 0.39227 0.0498 0.56048 0.17973 0.92615 0.7156 0.46289 0.67832 0.74006 1.8847 0.43303 1.8847-0.08384 0-0.15243 0.093-0.15243 0.20667 0 0.4017-0.56539 0.45482-1.1193 0.10517-0.3526-0.22259-0.60816-0.29549-0.81064-0.23122-0.16263 0.0516-0.3045 0.0698-0.31525 0.0403-0.01077-0.0294-0.14797 0.0627-0.30491 0.20472-0.28165 0.25489-0.28937 0.25445-0.59612-0.0337-0.26299-0.24707-0.47016-0.29196-1.3474-0.29196-0.81377 0-1.0367 0.0419-1.0367 0.19481 0 0.10714-0.14251 0.36048-0.31669 0.56298-0.26384 0.30672-0.43026 0.36988-0.99729 0.37845-0.45622 7e-3 -0.76315-0.0637-0.931-0.21413-0.13772-0.12343-0.52355-0.24034-0.85739-0.25981-0.33384-0.0195-0.6859-0.0954-0.78236-0.16865-0.27204-0.20671-0.53965 0.15593-0.77126 1.0452-0.14115 0.54191-0.16227 0.83938-0.0677 0.95334 0.09372 0.11292 0.09009 0.30155-0.01138 0.59264-0.08187 0.23486-0.11384 0.56653-0.07104 0.73705 0.04475 0.17831-0.01003 0.43546-0.12896 0.60525-0.16307 0.23282-0.18695 0.49645-0.11297 1.2472 0.09338 0.94762 0.09174 0.95414-0.35557 1.4156-0.5044 0.52041-0.66872 0.5566-1.1363 0.25026-0.48422-0.31727-0.68343-1.041-0.46703-1.6966 0.13571-0.4112 0.14231-0.80135 0.02994-1.7704-0.08984-0.77477-0.09656-1.3014-0.01783-1.3981 0.06946-0.0853 0.18714-0.53296 0.26151-0.99477 0.11426-0.70947 0.10179-0.87659-0.08043-1.0779-0.12425-0.13729-0.32605-0.20942-0.47612-0.17017-0.16198 0.0424-0.29204-0.0142-0.34398-0.14952-0.04593-0.1197-0.15289-0.21811-0.23769-0.21868-0.0848-5.3e-4 -0.2223-0.14802-0.30557-0.32764-0.1342-0.28948-0.10213-0.37019 0.28227-0.71051 0.23851-0.21117 0.54999-0.3927 0.69217-0.40341 0.14218-0.0107 0.31865-0.0342 0.39216-0.0521 0.07351-0.0179 0.30899 0.0396 0.5233 0.12783 0.48483 0.19963 0.5834 0.11274 0.35539-0.3133-0.15169-0.28343-0.14372-0.38182 0.05554-0.68592 0.12794-0.19527 0.2126-0.36494 0.18813-0.37705-0.02447-0.0121-0.18487-0.10078-0.35643-0.19704-0.17156-0.0963-0.41436-0.14317-0.53954-0.10424-0.12519 0.0389-0.31416 0.0165-0.41994-0.0499-0.251-0.15753-1.4531 0.46078-1.5618 0.80333-0.04352 0.13713-0.34885 0.40739-0.6785 0.60058-0.50935 0.2985-0.69791 0.33818-1.2555 0.26421-0.60581-0.0804-0.6886-0.0553-1.0796 0.32693-0.5608 0.54819-1.3571 0.76416-2.016 0.54673-0.27169-0.0897-0.92025-0.14986-1.4412-0.13377-0.89828 0.0277-1.0365 0.0758-1.7699 0.61467-0.12444 0.0915-0.30972 0.0332-0.61728-0.19425-0.32633-0.24127-0.64368-0.33389-1.2327-0.3598-0.43627-0.0192-0.92388-0.12037-1.0836-0.22485-0.40152-0.26269-1.4762-0.20845-1.7742 0.0895-0.14436 0.14435-0.32247 0.2-0.45566 0.14236-0.2006-0.0868-0.34307-0.10739-1.175-0.16958-0.20147-0.0151-0.33271-0.17501-0.45997-0.56061-0.18452-0.5591-0.40466-0.72053-0.40466-0.29675 0 0.13354-0.0573 0.30046-0.12733 0.37094-0.15929 0.1603-0.17974 1.1487-0.04033 1.9491 0.12252 0.70345 0.3203 0.73743 1.1191 0.19226 0.26364-0.17993 0.61567-0.32714 0.78229-0.32714 0.368 0 1.0989 0.36115 1.0989 0.543 0 0.1964 0.26185 0.15861 0.49137-0.0709 0.11128-0.11128 0.36532-0.20233 0.56452-0.20233 0.1992 0 0.57423-0.0665 0.8334-0.14784 0.7087-0.22236 2.4705-0.36011 2.6363-0.20614 0.07797 0.0724 0.11886 0.28791 0.09088 0.47887-0.04545 0.31015-0.10783 0.34507-0.5843 0.32712-0.29338-0.0111-0.9096 0.0938-1.3694 0.23301-0.88228 0.26714-1.5979 0.27054-2.0849 0.01-0.23338-0.1249-0.31591-0.11852-0.40203 0.0311-0.14875 0.25837-1.4781 0.88997-2.1105 1.0028-0.4534 0.0809-0.54194 0.1601-0.70612 0.63187-0.10324 0.29668-0.18863 0.64408-0.18975 0.77201-0.0011 0.12792-0.18413 0.32675-0.40669 0.44184-0.22256 0.11509-0.40466 0.25899-0.40466 0.31977 0 0.14605 0.41141 0.49446 0.70815 0.59969 0.30118 0.10681 0.30808 0.6799 0.01847 1.5329-0.2196 0.64683-0.26436 1.1589-0.1852 2.119 0.07717 0.93611-0.81925 1.2332-1.3733 0.45513zm-0.13649-8.5045c0.10176-0.12261 0.10172-0.3295-1.35e-4 -0.70815-0.07915-0.29421-0.17262-0.85774-0.20771-1.2523-0.07371-0.8288-0.24793-0.95833-0.94833-0.70506-0.61131 0.22105-2.6259 0.40608-2.792 0.25643-0.18814-0.16945-0.80438-0.14057-0.99141 0.0464-0.35259 0.3526-0.14673 0.4454 1.0357 0.4669 1.3016 0.0237 2.0179 0.27038 2.1399 0.73706 0.03791 0.14498 0.24332 0.35379 0.45645 0.464 0.21313 0.11022 0.38751 0.28687 0.38751 0.39255 0 0.19724 0.35326 0.46393 0.62419 0.47124 0.08365 2e-3 0.21678-0.0739 0.29585-0.16912zm-23.019-0.4897c0.60584-0.47655 2.5204-1.397 2.7347-1.3148 0.11604 0.0445 0.31318 0.29528 0.43809 0.55722 0.26489 0.55548 0.63173 0.62057 1.1592 0.20567 0.26265-0.2066 0.62578-0.2882 1.5357-0.3451 0.65541-0.041 1.2433-0.12566 1.3065-0.18818 0.06315-0.0625 0.0735-0.30176 0.02301-0.53166-0.08362-0.3807-0.13897-0.41799-0.62063-0.41799-0.43276 0-0.52882-0.0474-0.52882-0.26068 0-0.31356-0.43411-0.47966-0.77575-0.29682-0.13552 0.0725-0.48683 0.12776-0.78069 0.12275-0.61211-0.0104-1.1771 0.11889-1.7242 0.39471-0.26347 0.13282-0.4317 0.14949-0.54656 0.0542-0.09127-0.0757-0.29511-0.10393-0.45298-0.0626-0.19926 0.0521-0.3411-0.0115-0.46381-0.20797-0.09722-0.15567-0.28597-0.28304-0.41946-0.28304-0.42366 0-1.2877 0.52339-1.3881 0.84078-0.05316 0.16816-0.23349 0.48785-0.40072 0.71041-0.47396 0.63076-0.47322 0.91852 0.0029 1.0967 0.56487 0.21143 0.53649 0.21375 0.90175-0.0736zm3.1701-0.23631c-0.04946-0.0495-0.13039-0.0495-0.17985 0-0.04946 0.0495-9e-3 0.0899 0.08992 0.0899s0.13938-0.0405 0.08992-0.0899zm45.355-0.0999c0.3234-0.1792 0.32242-0.18059-0.16861-0.23791-0.40698-0.0475-0.49391-0.0149-0.49391 0.18503 0 0.28551 0.21212 0.30244 0.66252 0.0529zm-0.12788-1.3555c0.21862-0.26341 0.06396-0.478-0.3445-0.478-0.38175 0-0.59222 0.37299-0.31096 0.55109 0.27233 0.17243 0.46999 0.15039 0.65546-0.0731zm-30.749-0.21617c0-0.0698-0.0607-0.12693-0.13489-0.12693-0.07419 0-0.13488 0.0946-0.13488 0.21029 0 0.11566 0.0607 0.17278 0.13488 0.12693 0.07419-0.0459 0.13489-0.14048 0.13489-0.21029zm29.405 0.15858c0-0.0655 0.1214-0.1509 0.26977-0.1897 0.32325-0.0845 0.36364-0.50046 0.04859-0.50046-0.24005 0-0.57695 0.36971-0.58384 0.6407-0.0024 0.0927 0.05641 0.16861 0.1306 0.16861 0.07419 0 0.13489-0.0536 0.13489-0.11915zm-37.99-0.75476c0.04802-0.12513-0.09024-0.19376-0.46167-0.22918-0.32889-0.0314-0.53021 6e-3 -0.53021 0.0991 0 0.25554 0.16896 0.33429 0.36614 0.17065 0.10375-0.0861 0.17802-0.10075 0.16504-0.0325-0.06837 0.35948 0.32229 0.35266 0.4607-8e-3zm1.3078 0.14006c-0.0887-0.10688-0.24752-0.16121-0.35296-0.12075-0.26398 0.10129-0.10393 0.31506 0.23589 0.31506 0.227 0 0.24859-0.0358 0.11706-0.19431zm24.947 0.0747c0-0.14605-0.82403-0.28511-1.0116-0.17072-0.07419 0.0452 0.04721 0.12187 0.26977 0.17031 0.60596 0.13187 0.74187 0.13195 0.74187 5.3e-4zm-1.261-0.18323c0.13324-0.21559-0.37277-0.64633-0.60596-0.51583-0.1414 0.0791-0.25954 0.0553-0.35303-0.0711-0.18246-0.24677-2.2789-0.33026-2.5094-0.0999-0.26837 0.26821-0.0079 0.46542 0.49101 0.37181 0.30056-0.0564 0.46158-0.0343 0.46158 0.0633 0 0.0824 0.1214 0.1499 0.26977 0.1499 0.14838 0 0.26977 0.0576 0.26977 0.12799 0 0.16054 1.8762 0.13572 1.9763-0.0261zm11.414-0.12158c0.1589-0.085 0.45352-0.14994 0.65471-0.14422 0.42229 0.012 0.53546-0.1776 0.37066-0.62101-0.08834-0.23769-0.18287-0.29173-0.39341-0.22491-0.15242 0.0484-0.35328 0.0247-0.44636-0.0525-0.11943-0.0991-0.28316-0.0814-0.55632 0.0604-0.26319 0.13655-0.41547 0.15489-0.47578 0.0573-0.12449-0.20142-0.53923-0.0151-0.53923 0.2423 0 0.30173 0.53838 0.83729 0.8417 0.83729 0.14032 0 0.38513-0.0696 0.54403-0.15461zm-47.246-0.58848c0.19429-0.18614 0.67134-0.45046 1.0601-0.58737 0.38876-0.1369 0.77158-0.31366 0.85071-0.39278 0.23947-0.23947-0.97923-0.0312-1.477 0.25243-0.24743 0.14098-0.8383 0.28429-1.3435 0.32586-1.0764 0.0886-1.3383 0.33105-0.60626 0.56133 0.77892 0.24502 1.1326 0.20782 1.516-0.15947zm22.658-0.0627c0.28602-0.18083 0.04488-0.357-0.62684-0.45796-0.50788-0.0763-0.55409-0.0597-0.49209 0.17745 0.04034 0.15426 0.21508 0.28421 0.42564 0.31656 0.19646 0.0302 0.38755 0.063 0.42464 0.073 0.03709 0.01 0.15798-0.0391 0.26864-0.10906zm22.965-0.071c-0.04978-0.19912-0.47365-0.16396-0.54333 0.0451-0.04113 0.12337 0.04016 0.16578 0.25853 0.13488 0.17518-0.0248 0.30334-0.10577 0.2848-0.17995zm-30.353-0.27726c0.74709-0.11049 0.92923-0.41511 0.55146-0.9223-0.24134-0.32402-0.52381-0.38767-2.4699-0.55657-0.18547-0.0161-0.39791-0.0445-0.4721-0.063-0.27798-0.0696-0.32708 7e-3 -0.20677 0.32374 0.09555 0.2513 0.06403 0.39442-0.13822 0.62762-0.1441 0.16614-0.262 0.41035-0.262 0.54267 0 0.37889 0.68532 0.38983 2.9976 0.0479zm14.173-0.10592c0.10932-0.28487-0.06861-0.44744-0.59569-0.54429-0.60337-0.11086-0.92858 3e-3 -0.92858 0.32595 0 0.16523 0.12217 0.26488 0.37094 0.30257 0.7611 0.1153 1.0859 0.0916 1.1533-0.0842zm7.9924-0.23557c0.04984-0.0806 0.21525-0.11404 0.36758-0.0742 0.15864 0.0415 0.43068-0.037 0.6368-0.1838 0.21682-0.15439 0.47597-0.22586 0.65202-0.17983 0.17361 0.0454 0.29217 0.0139 0.29217-0.0776 0-0.26664 0.69441-0.43708 2.1582-0.52974 1.3969-0.0884 1.4163-0.0943 1.4163-0.42686 0-0.30835-0.05685-0.34081-0.66439-0.37929-0.50268-0.0318-0.6941 0.011-0.78648 0.17609-0.09178 0.164-0.16664 0.18119-0.30153 0.0693-0.29781-0.24716-1.8558 0.1341-2.351 0.5753-0.41421 0.36907-0.41421 0.36907-0.68453 0.0987-0.14868-0.14867-0.39016-0.27032-0.53663-0.27032-0.29133 0-0.67789-0.61422-0.67789-1.0771 0-0.15467 0.10142-0.43602 0.22538-0.6252 0.19208-0.29315 0.19706-0.36191 0.03372-0.46529-0.17862-0.11306-0.38979-0.13692-1.8103-0.20459-0.29675-0.0141-0.84303-0.0967-1.214-0.18341-0.37094-0.0867-0.91722-0.20839-1.214-0.27033-0.93712-0.19561-1.4161-0.447-1.4184-0.74437-0.0011-0.15066-0.04968-0.34888-0.10786-0.44049-0.13449-0.21173-0.87914-0.24003-1.5761-0.0599-1.2324 0.31851-2.3879 0.39528-3.3384 0.2218-0.47886-0.0874-0.50582-0.0736-0.50582 0.25967 0 0.29743 0.05985 0.35197 0.38626 0.35197 0.47008 0 1.0975 0.58188 1.0975 1.0178 0 0.27482 0.09888 0.32331 0.9532 0.46741 0.52426 0.0884 1.1616 0.13645 1.4163 0.10671 0.2547-0.0297 0.4631 1e-3 0.4631 0.0695 0 0.0679 0.16628 0.0917 0.3695 0.0529 0.20322-0.0388 0.47725-0.013 0.60895 0.0575 0.1529 0.0818 0.41834 0.0788 0.73435-8e-3 0.27219-0.0752 0.55963-0.0874 0.63874-0.0273 0.07912 0.0602 0.53838 0.0919 1.0206 0.0705 0.56758-0.0251 1.0313 0.0322 1.3151 0.16269 0.38113 0.17522 0.43775 0.26677 0.4336 0.70103-0.0026 0.27472-0.09153 0.65124-0.19755 0.83671-0.24307 0.42521-0.25147 0.58726-0.02595 0.50072 0.09701-0.0372 0.47637 0.0742 0.84303 0.24757 0.73097 0.34565 1.2083 0.41084 1.3484 0.18416zm-18.558-0.11783c0.16788-0.10617 0.17197-0.19847 0.0266-0.60048-0.20028-0.55386-0.08416-0.86373 0.45638-1.2179 0.29991-0.1965 0.41688-0.20706 0.75272-0.068 0.2187 0.0906 0.48239 0.28572 0.58599 0.43362 0.10383 0.14825 0.27563 0.23543 0.38285 0.19428 0.10697-0.041 0.257-0.0121 0.3334 0.0643 0.09528 0.0953 0.30166 0.0848 0.65714-0.0333 0.28503-0.0947 0.76103-0.19329 1.0578-0.21909 1.6088-0.13988 2.3885-0.18347 3.271-0.18289 0.74076 5.2e-4 0.97792-0.0444 0.97792-0.18508 0-0.1882-0.50686-0.29605-1.7773-0.3782-0.34692-0.0224-0.67571-0.0857-0.73063-0.14065-0.05492-0.0549-0.29861-0.0999-0.54152-0.0999-0.24291 0-0.48137-0.0642-0.5299-0.14278-0.04965-0.0803-0.25403-0.10637-0.46727-0.0595-0.30276 0.0665-0.45029 7e-3 -0.73324-0.2956-0.65799-0.70372-0.57849-1.3092 0.19137-1.4575 0.17589-0.0339 0.38109-0.12289 0.45601-0.19781 0.15022-0.15022-1.026-0.10253-1.4179 0.0575-0.12232 0.0499-0.26125 0.028-0.30872-0.0488-0.04747-0.0768-0.26335-0.10426-0.47972-0.061-0.26648 0.0533-0.46374 8e-3 -0.61139-0.1393-0.11989-0.11989-0.35599-0.21799-0.52466-0.21799-0.16867 0-0.41654-0.12139-0.55081-0.26977-0.26652-0.29449-0.80272-0.33747-1.802-0.14442-0.39121 0.0756-0.8427 0.0547-1.3489-0.0625-0.41845-0.0968-0.91256-0.17289-1.098-0.16899-0.18547 4e-3 -0.64071-0.0715-1.0116-0.16755-0.37094-0.0961-1.16-0.18461-1.7535-0.19677-3.2533-0.0667-4.1271-0.10868-4.9233-0.23671-0.48222-0.0775-0.99815-0.21437-1.1465-0.30407s-0.61879-0.2424-1.0454-0.33935c-0.62655-0.14238-0.91167-0.14393-1.4837-8e-3 -0.40131 0.0953-1.2634 0.1485-1.9896 0.12271-1.2814-0.0455-1.2814-0.0455-1.2814 0.35916 0 0.31695 0.06578 0.414 0.30349 0.44776 0.16692 0.0237 0.30349 0.12635 0.30349 0.22809 0 0.3141 0.19906 0.33602 1.1849 0.13047 0.6728-0.14029 1.1884-0.16616 1.7582-0.0882 0.46292 0.0633 1.2197 0.0543 1.7771-0.0212 0.61976-0.0839 1.0028-0.0846 1.0591-2e-3 0.04852 0.0712 0.33101 0.14291 0.62776 0.15935 0.29675 0.0164 0.72164 0.084 0.9442 0.15012 0.5398 0.16039 1.6954 0.32934 1.9896 0.29087 0.12983-0.017 0.23605 0.0321 0.23605 0.10899 0 0.084 0.44458 0.14614 1.1128 0.15558 0.61204 9e-3 1.3253 0.0302 1.5849 0.0479 0.25965 0.0177 0.67127 0.0426 0.91471 0.0552 0.28531 0.0149 0.47237 0.10694 0.52632 0.2591 0.04604 0.12983 0.18071 0.35114 0.29926 0.49181 0.16184 0.19203 0.17354 0.27045 0.04694 0.31473-0.09273 0.0324-0.16861 0.14139-0.16861 0.24211 0 0.22508-0.16436 0.33268-0.6399 0.41891-0.20112 0.0365-0.38909 0.0897-0.41771 0.11835-0.02862 0.0286-0.28783-0.0423-0.57603-0.15763-0.2882-0.11531-0.61279-0.17558-0.72132-0.13394-0.10853 0.0417-0.51837-0.0159-0.91075-0.12795-0.80415-0.22957-1.8949-0.46275-2.3995-0.51297-0.18547-0.0185-0.47504-0.10755-0.6435-0.19798-0.16845-0.0904-0.37983-0.11896-0.46973-0.0634-0.24682 0.15255-0.61956 0.2063-1.5845 0.2285-0.48222 0.0111-0.91087 0.066-0.95256 0.12198-0.04169 0.056-0.64867 0.0943-1.3489 0.0851-2.85-0.0373-3.5465 0.0352-4.0726 0.42415-0.35985 0.26605-0.58605 0.29445-2.6412 0.33154-1.2362 0.0223-2.4039 0.0812-2.5949 0.1309-0.23404 0.0609-0.40213 0.0242-0.51568-0.11264-0.22329-0.26905-0.51762-0.1399-0.76312 0.33484-0.26809 0.51844-0.06478 0.82977 0.68681 1.0517 0.31762 0.0938 0.73523 0.34754 0.92801 0.56391 0.19278 0.21636 0.42591 0.39588 0.51808 0.39894 0.09216 3e-3 0.51138 0.0387 0.93159 0.0791 0.59103 0.0569 1.023-5e-3 1.9079-0.27533 0.62913-0.19189 1.4258-0.3489 1.7705-0.3489 0.35581 0 0.85019-0.11408 1.144-0.26399 0.28461-0.1452 0.54877-0.23269 0.58703-0.19443 0.03826 0.0383 0.2877-0.0216 0.5543-0.13297 0.2666-0.11139 0.8565-0.2369 1.3109-0.27891 0.45438-0.042 0.88397-0.11212 0.95464-0.1558 0.07067-0.0437 0.23966 0.0212 0.37553 0.14415 0.16976 0.15363 0.51521 0.22912 1.1043 0.24133 1.3282 0.0275 3.3627-0.17416 3.9596-0.3925 1.1001-0.40237 1.4723-0.47285 2.0443-0.38707 0.32226 0.0483 0.58589 0.12967 0.58585 0.18076-4.1e-5 0.0511 0.45638 0.0849 1.0143 0.0751 0.75387-0.0133 1.1422 0.0473 1.5123 0.23605 0.2739 0.13964 0.57812 0.2539 0.67604 0.2539 0.09792 0 0.21298 0.0911 0.25568 0.20232 0.0427 0.11129 0.21471 0.20233 0.38223 0.20233 0.52109 0 1.0154 0.49725 1.0154 1.0214 0 0.41491 0.03803 0.46209 0.37094 0.46024 0.20401-1e-3 0.4602-0.0585 0.5693-0.12752zm11.565-1.5043c0.08256-0.0826 0.2237-0.10462 0.31365-0.049 0.08995 0.0556 0.70223 0.10797 1.3606 0.11639 1.0461 0.0134 1.1971-0.0138 1.1971-0.21564-2.4e-5 -0.20267-0.12677-0.22428-1.0353-0.17651-0.56941 0.0299-1.1424-3e-3 -1.2732-0.0729-0.15266-0.0817-0.2679-0.0789-0.32153 8e-3 -0.04597 0.0744-0.29245 0.13525-0.54773 0.13525-0.66411 0-0.61292 0.24241 0.08215 0.38901 0.0408 9e-3 0.14174-0.0519 0.2243-0.13447zm17.034-0.0395c0.25965-0.0431 0.82872-0.02 1.2646 0.0513 0.6964 0.11394 0.86812 0.0943 1.4163-0.16232 0.3431-0.1606 0.67267-0.27894 0.73238-0.26299 0.05971 0.0159 0.24014-0.0632 0.40095-0.17579 0.16081-0.11263 0.40028-0.20479 0.53215-0.20479 0.13186 0 0.23975-0.091 0.23975-0.20233 0-0.11128-0.05141-0.20233-0.11424-0.20233-0.06283 0-0.25422-0.1214-0.4253-0.26977-0.37872-0.32846-0.45727-0.33277-0.74892-0.0411-0.14814 0.14814-0.51963 0.24875-1.055 0.28574-0.45449 0.0314-0.89834 0.11482-0.98633 0.18537-0.10298 0.0826-0.26739 0.0708-0.46142-0.0331-0.2504-0.13401-0.32973-0.12263-0.46856 0.0672-0.12876 0.17609-0.431 0.23972-1.3166 0.27715-1.0647 0.045-1.1755 0.0245-1.5028-0.27893-0.19437-0.18013-0.4667-0.32751-0.60518-0.32751-0.33407 0-0.67851 0.13757-0.67851 0.271 0 0.1641 0.75771 0.39166 1.0498 0.31529 0.14237-0.0372 0.35648 0.0299 0.47579 0.14924 0.30105 0.30105 1.3318 0.75119 1.5768 0.68858 0.11128-0.0284 0.41477-0.087 0.67443-0.13002zm-18.243-0.0783c0.09273-1e-3 0.16861-0.0474 0.16861-0.103 0-0.18753-0.85272-0.10582-0.9173 0.0879-0.04702 0.14107 0.0186 0.16721 0.25853 0.103 0.17685-0.0473 0.39742-0.0869 0.49016-0.0879zm-1.1803-0.0613c0-0.14237-0.25886-0.20218-0.33585-0.0776-0.0466 0.0754 0.0099 0.13709 0.12557 0.13709 0.11566 0 0.21029-0.0268 0.21029-0.0595zm24.954-0.88472c0-0.0742-0.02677-0.13488-0.05948-0.13488s-0.097 0.0607-0.14285 0.13488c-0.04585 0.0742-0.01908 0.13489 0.05948 0.13489 0.07857 0 0.14284-0.0607 0.14284-0.13489zm-11.913-0.48571c0.08034-0.20938-0.15404-0.45666-0.42854-0.45213-0.07419 1e-3 -0.25599 0.0937-0.404 0.20559-0.23085 0.17445-0.24044 0.22149-0.06744 0.33085 0.3158 0.19965 0.80874 0.15347 0.89999-0.0843zm0.68079-0.01c0.03346-0.10051-0.04837-0.13159-0.22487-0.0854-0.15261 0.0399-0.27747 0.13063-0.27747 0.20161 0 0.17907 0.43775 0.0778 0.50235-0.11618zm5.8917-0.72881c0.067-0.0617 0.22202-0.0586 0.34448 7e-3 0.1303 0.0697 0.30356 0.068 0.41771-4e-3 0.10728-0.0679 0.3849-0.12434 0.61692-0.12548 0.54859-3e-3 0.8646-0.33866 0.42634-0.45327-0.16721-0.0437-0.35829-0.0252-0.42463 0.0411-0.06951 0.0695-0.25137 0.0709-0.42922 3e-3 -0.33074-0.12575-1.2091 0.0549-1.3463 0.27691-0.04415 0.0714-0.22844 0.1299-0.40953 0.1299-0.20704 0-0.32925 0.0774-0.32925 0.20844 0 0.16692 0.10074 0.19053 0.50582 0.11852 0.2782-0.0495 0.56064-0.14041 0.62765-0.20213zm-9.6313-0.88263c0-0.11128-0.0607-0.16482-0.13488-0.11897-0.07419 0.0459-0.13488 0.17442-0.13488 0.2857s0.0607 0.16481 0.13488 0.11896c0.07419-0.0459 0.13488-0.17441 0.13488-0.28569zm-12.975-0.15268c-0.05066-0.26306-0.52926-0.32474-0.61125-0.0788-0.04542 0.13627 0.15002 0.24343 0.54566 0.29917 0.06108 9e-3 0.0906-0.0906 0.0656-0.2204zm0.56522 0.0417c0-0.0327-0.07008-0.10279-0.15572-0.15573-0.09648-0.0596-0.11911-0.037-0.05948 0.0595 0.0961 0.15549 0.21521 0.20876 0.21521 0.0962zm-1.7535-1.3076c0.90197-0.10957 1.6209-0.11603 2.4279-0.0218 0.89276 0.10422 1.2622 0.0936 1.6693-0.048 0.28753-0.1 0.87191-0.18179 1.2986-0.18179 0.52508 0 0.83011-0.0654 0.94376-0.20233 0.09235-0.11128 0.14531-0.20668 0.11768-0.212-0.02763-5e-3 -0.56617-0.0365-1.1968-0.0692-0.63059-0.0327-1.3846-0.15346-1.6755-0.26828-0.29094-0.11481-0.83722-0.21371-1.214-0.21978-0.37675-6e-3 -0.74637-0.0585-0.82139-0.11649-0.07502-0.058-0.49991-0.0141-0.9442 0.0976-0.44429 0.11171-1.0825 0.222-1.4182 0.24509-0.33573 0.0231-0.84294 0.13914-1.1271 0.25789-0.28419 0.11874-0.56587 0.18551-0.62595 0.14838-0.18724-0.11572-0.8063 0.18728-0.8063 0.39463 0 0.34063 1.4757 0.42641 3.3721 0.19604zm5.5303-0.45392c0-0.0371 0.03035-0.0674 0.06744-0.0674s0.06744 0.0303 0.06744 0.0674-0.03035 0.0674-0.06744 0.0674-0.06744-0.0303-0.06744-0.0674zm-12.269 0.13115c0.08097-0.05 0.11653-0.17098 0.07901-0.26875-0.10543-0.27475 0.40466-0.78713 0.67886-0.68191 0.36688 0.14078 2.2036-0.3267 2.2036-0.56086 0-0.0576-0.35027-0.24056-0.77837-0.40656-0.96632-0.3747-2.2221-0.37497-3.2438-7.9e-4 -0.3946 0.14454-0.7516 0.22866-0.79333 0.18693-0.04173-0.0417-0.18384-0.0181-0.31581 0.0525-0.16567 0.0887-0.35851 0.0666-0.62297-0.0714-0.21067-0.10987-0.45384-0.20014-0.5404-0.2006-0.08655-5.3e-4 -0.18094-0.0716-0.20975-0.15799-0.03128-0.0938-0.42989-0.17386-0.98916-0.19859-0.51522-0.0228-1.2518-0.0736-1.6368-0.11284-0.38503-0.0393-0.7335-0.0173-0.77438 0.0489-0.04088 0.0661-0.50349 0.12681-1.028 0.1348-0.52452 8e-3 -1.0562 0.0681-1.1815 0.13349-0.12528 0.0654-0.7373 0.12883-1.36 0.14087-0.62274 0.012-1.2501 0.085-1.3941 0.16205-0.28418 0.15209-0.23329 0.28123 0.13492 0.34236 0.98132 0.16293 1.2095 0.2131 1.4473 0.3183 0.46304 0.20483 1.3182 0.39504 1.4393 0.32017 0.06367-0.0394 0.43356-9e-3 0.82197 0.0684 0.38842 0.0769 1.3254 0.17286 2.0821 0.21316 0.75676 0.0403 1.4548 0.10254 1.5512 0.1383 0.0964 0.0358 0.56981 0.12913 1.052 0.2075 0.48222 0.0784 1.1499 0.1931 1.4837 0.25496 0.64881 0.12023 1.6524 0.0871 1.8945-0.0625zm29.351-0.13115c0.17985-0.17984 0.16665-0.20232-0.11874-0.20232-0.17659 0-0.43889 0.0891-0.5829 0.19803-0.25028 0.18931-0.24504 0.19823 0.11874 0.20233 0.20932 2e-3 0.47162-0.0868 0.5829-0.19804zm-15.599-0.0674c0-0.0742-0.0607-0.13488-0.13489-0.13488-0.07419 0-0.13488 0.0607-0.13488 0.13488 0 0.0742 0.0607 0.13489 0.13488 0.13489 0.07419 0 0.13489-0.0607 0.13489-0.13489zm0.40465-0.0674c0-0.0371-0.03035-0.0674-0.06744-0.0674s-0.06744 0.0303-0.06744 0.0674 0.03035 0.0674 0.06744 0.0674 0.06744-0.0303 0.06744-0.0674zm1.3489 0c0-0.0371-0.03035-0.0674-0.06744-0.0674s-0.06744 0.0303-0.06744 0.0674 0.03035 0.0674 0.06744 0.0674 0.06744-0.0303 0.06744-0.0674zm14.635-0.20232c0.04585-0.0742-0.04161-0.13489-0.19437-0.13489-0.15275 0-0.27773 0.0607-0.27773 0.13489 0 0.0742 0.08746 0.13488 0.19437 0.13488 0.1069 0 0.23188-0.0607 0.27773-0.13488zm-5.1257-0.46233c0.14837-0.0109 0.51333-0.14793 0.811-0.30464 0.37416-0.19697 0.91088-0.31108 1.7387-0.36968 0.6586-0.0466 1.2496-0.11702 1.3134-0.15644 0.27683-0.17109 0.07914-0.43729-0.38983-0.52493-0.2782-0.052-0.57904-0.15502-0.66852-0.22895-0.08948-0.0739-0.23916-0.0872-0.33261-0.0294-0.17626 0.10893-1.1426 0.21628-1.7303 0.19223-2.2269-0.0911-2.1977-0.0956-3.0764 0.47146-1.2035 0.77669-1.1981 0.91752 0.03092 0.80235 0.81422-0.0763 1.06-0.0529 1.3143 0.12524 0.17204 0.1205 0.4043 0.17936 0.51615 0.1308 0.11184-0.0486 0.32474-0.0972 0.47312-0.10803zm8.9362-0.28658c0.09273-0.0286 0.16861-0.14807 0.16861-0.26555 0-0.31763-1.3954-0.22891-1.4565 0.0926-0.0631 0.33212 0.51791 0.41015 1.2879 0.17295zm-20.88-0.59811c0.12216-1e-3 0.14748-0.0486 0.06744-0.12635-0.15955-0.15503-0.87001-0.0277-0.87001 0.15596 0 0.0742 0.13657 0.0983 0.30349 0.0536 0.16692-0.0447 0.39151-0.0822 0.49908-0.0832zm0.54629-0.0693c0-0.0371-0.03035-0.0674-0.06744-0.0674s-0.06744 0.0303-0.06744 0.0674 0.03035 0.0674 0.06744 0.0674 0.06744-0.0303 0.06744-0.0674zm-7.3456-0.34641c0.04898-0.0793 0.16893-0.11343 0.26657-0.076 0.23976 0.092 0.37748-0.30779 0.18566-0.53893-0.22806-0.27479-0.42106-0.22434-0.32306 0.0844 0.06543 0.20615 4e-3 0.30068-0.26068 0.40132-0.19045 0.0724-0.34627 0.1635-0.34627 0.20243 0 0.13148 0.38802 0.0719 0.47778-0.0733zm-21.52-0.46291c0-0.0371-0.03035-0.0674-0.06744-0.0674s-0.06744 0.0303-0.06744 0.0674 0.03035 0.0674 0.06744 0.0674 0.06744-0.0303 0.06744-0.0674zm4.5542-0.32407c0.42024-0.21842 1.3031-0.42041 1.7854-0.40847 0.84266 0.0209 2.5356-0.14055 2.8909-0.27562 0.42517-0.16165 0.43314-0.28088 0.04287-0.64175-0.36211-0.33484-0.85854-0.31583-2.4495 0.0938-0.58682 0.15108-1.4093 0.2747-1.8277 0.2747s-0.8336 0.0728-0.92262 0.16186c-0.12589 0.12589-0.19783 0.12589-0.32372 0-0.19502-0.19502-0.90493-0.21114-1.378-0.0313-0.47685 0.1813-0.31364 0.50018 0.30147 0.58901 0.41216 0.0595 1.4833 0.28822 1.6111 0.344 0.01955 8e-3 0.14095-0.0393 0.26977-0.10623zm5.2475-0.91238c-0.04946-0.0495-0.08992-9e-3 -0.08992 0.0899s0.04047 0.13938 0.08992 0.0899c0.04946-0.0495 0.04946-0.13039 0-0.17985zm34.575 0.0562c-0.0013-0.20844-0.61647-0.50582-1.0464-0.50582-0.17555 0-0.4366-0.0628-0.58009-0.13964-0.21785-0.11658-0.2609-0.0948-0.2609 0.13232 0 0.18857 0.11373 0.29494 0.37094 0.34693 0.20402 0.0412 0.52268 0.12699 0.70815 0.19055 0.50591 0.17338 0.80944 0.16424 0.80826-0.0243zm-32.102-0.95272c0-0.0692-0.17783-0.0903-0.39517-0.0469-0.25121 0.0502-0.4152 0.0195-0.45016-0.0843-0.04152-0.12332-0.10993-0.11798-0.27926 0.0218-0.2166 0.1788-0.29994 0.571-0.15263 0.71831 0.10237 0.10237 1.2772-0.45774 1.2772-0.60891zm36.357-1.3151c0.12414-0.20086-0.01979-0.31007-0.27805-0.21097-0.11918 0.0457-0.17892 0.14428-0.13274 0.21899 0.10934 0.17691 0.29879 0.17321 0.41079-8e-3zm-47.688-1.2724c0-0.11128-0.0607-0.20233-0.13488-0.20233-0.07419 0-0.13489 0.091-0.13489 0.20233 0 0.11128 0.0607 0.20233 0.13489 0.20233 0.07419 0 0.13488-0.0911 0.13488-0.20233zm1.9491-0.35142c0.07048-0.0664 0.2309-0.12068 0.3565-0.12068 0.1256 0 0.2633-0.091 0.306-0.20233 0.10623-0.27683-0.16203-0.2571-1.057 0.0777-0.41169 0.15404-0.71168 0.33969-0.66665 0.41256 0.09019 0.14593 0.85684 0.0251 1.0611-0.16729zm46.07 0.16352c0-0.16942-0.35248-0.28494-0.85407-0.27991-0.40496 4e-3 -0.41363 0.0147-0.16552 0.20233 0.28537 0.21585 1.0196 0.27172 1.0196 0.0776zm-1.4163-0.14931c-0.04585-0.0742-0.186-0.13062-0.31146-0.12541-0.18594 8e-3 -0.17824 0.0309 0.04168 0.12541 0.36094 0.1551 0.36563 0.1551 0.26977 0zm-35.318-0.87874c0.82838-0.0195 1.5784-0.0802 1.6667-0.13476 0.0883-0.0546 0.42724-0.0939 0.75319-0.0873 0.43573 9e-3 0.59265-0.0404 0.59265-0.18551 0-0.10858-0.12162-0.19741-0.27026-0.19741-0.14865 0-0.49676-0.1214-0.7736-0.26977-0.27683-0.14837-0.66757-0.26977-0.86831-0.26977s-0.40249-0.0607-0.44834-0.13489c-0.04585-0.0742-0.26378-0.13488-0.48429-0.13488-0.23328 0-0.43364-0.0852-0.47916-0.20385-0.05389-0.14043-0.20995-0.18653-0.50159-0.14816-0.62126 0.0817-2.2493 0.62948-2.7164 0.9139-0.22256 0.13553-0.53821 0.24664-0.70145 0.24692-0.16323 2.6e-4 -0.35565 0.10567-0.42758 0.23421-0.23218 0.41488 0.40891 0.58238 1.8709 0.48884 0.70478-0.0451 1.9592-0.098 2.7876-0.11754zm28.978-0.0655c0.04585-0.0742-0.01484-0.13488-0.13488-0.13488-0.12004 0-0.18074 0.0607-0.13488 0.13488 0.04585 0.0742 0.10655 0.13489 0.13488 0.13489 0.02834 0 0.08904-0.0607 0.13488-0.13489zm-1.4163-0.12515c0-0.0674-0.20815-0.25126-0.46256-0.4085-0.25441-0.15723-0.48567-0.3552-0.51391-0.43992-0.08335-0.25005-0.50727-4e-3 -0.50727 0.29491 0 0.1813-0.08857 0.27401-0.26181 0.27401-0.26291 0-0.46238 0.17505-0.33949 0.29794 0.12247 0.12246 2.085 0.10511 2.085-0.0184zm-2.2931-0.0692c0-0.0327-0.0607-0.097-0.13488-0.14285-0.07419-0.0459-0.13488-0.0191-0.13488 0.0595s0.0607 0.14285 0.13488 0.14285c0.07419 0 0.13488-0.0268 0.13488-0.0595zm-21.615-1.5661c0.29985 0.0106 0.43838-0.0463 0.43838-0.1799 0-0.27382-0.23865-0.32366-0.93074-0.19437-0.68501 0.12798-0.75147 0.16923-0.61873 0.38401 0.05561 0.09 0.21776 0.11749 0.38444 0.0652 0.15855-0.0497 0.48554-0.0834 0.72665-0.075zm36.183-0.60002c0-0.0371-0.03035-0.0674-0.06744-0.0674s-0.06744 0.0303-0.06744 0.0674 0.03035 0.0674 0.06744 0.0674 0.06744-0.0303 0.06744-0.0674zm-43.382-0.70685c0.51692-0.0396 0.82709-6e-3 0.8901 0.0957 0.07177 0.11613 0.21497 0.1049 0.55546-0.0436 0.30431-0.13269 0.3733-0.20374 0.20491-0.21104-0.13962-6e-3 -0.45664-0.13633-0.7045-0.28951-0.32461-0.20063-0.51483-0.2426-0.68013-0.1501-0.14639 0.0819-0.36851 0.08-0.61345-5e-3 -0.27236-0.095-0.43946-0.0878-0.57486 0.0246-0.132 0.10955-0.26813 0.11708-0.44126 0.0244-0.33487-0.17922-1.8059-0.0363-2.1349 0.20741-0.25975 0.19245-0.25974 0.19619 3.97e-4 0.38894 0.14448 0.10704 0.36954 0.16071 0.50014 0.11926 0.13059-0.0414 0.40456 0.0122 0.60883 0.11922 0.32545 0.17053 0.4471 0.16901 0.9836-0.0123 0.33672-0.11376 0.96925-0.23419 1.4056-0.26762zm7.2408-0.92206c0.22757-0.2742 0.01548-0.41972-0.78902-0.54137-0.48348-0.0731-0.60707-0.15659-0.7547-0.50976-0.0971-0.23228-0.27521-0.50416-0.39581-0.60418-0.37477-0.31079-1.0752-0.24246-1.5974 0.15583-0.26192 0.19978-0.53894 0.36323-0.61558 0.36323-0.07665 0-0.21492 0.091-0.30728 0.20233-0.09235 0.11128-0.30063 0.20233-0.46284 0.20233-0.35888 0-0.93392 0.38603-0.61625 0.4137 0.11128 0.01 0.44512 0.0387 0.74187 0.0645 0.55852 0.0485 4.1997 0.41252 4.4684 0.44666 0.08365 0.0106 0.23149-0.0763 0.32854-0.19329zm-13.648-0.2493c0.09465-0.0585 0.45574-0.13253 0.80243-0.16453 0.34669-0.032 1.0249-0.17217 1.5071-0.3115 0.48222-0.13932 1.0698-0.29268 1.3058-0.34078 0.44876-0.0915 0.82232-0.41491 0.66311-0.57411-0.05104-0.051-0.19626-0.0288-0.32271 0.0494-0.30934 0.19128-2.0029 0.23669-2.1142 0.0567-0.12674-0.20508-0.50447-0.17416-1.0211 0.0836-0.56023 0.27948-1.3458 0.46007-2.1987 0.50543-0.37288 0.0198-0.70169 0.1137-0.76669 0.21887-0.14949 0.24188-0.04182 0.39935 0.27305 0.39935 0.13962 0 0.28852 0.0561 0.33089 0.12466 0.08993 0.14552 1.2887 0.10893 1.541-0.047zm39.846-1.1169c-0.07563-0.19709-0.55243-0.22929-0.82618-0.0558-0.14649 0.0928-0.14892 0.16617-0.01273 0.38427 0.15773 0.25257 0.19152 0.25621 0.53712 0.0579 0.20284-0.11642 0.33865-0.29027 0.30178-0.38633zm-33.861-0.24156c-0.02929-0.1155-0.36405-0.14085-1.0867-0.0823-0.09711 8e-3 -0.14134 0.0713-0.0983 0.14095 0.10436 0.16887 1.2286 0.11322 1.185-0.0587zm3.1593-1.2116c0.43257-0.10965 1.6666-0.22565 2.7423-0.25777 1.8308-0.0547 2.0205-0.0859 2.9675-0.48857 0.5564-0.23659 1.0604-0.47586 1.12-0.53172 0.05957-0.0559-0.0223-0.32292-0.18193-0.59348-0.3235-0.54829-0.57801-0.60399-1.4269-0.31227-0.28753 0.0988-0.8213 0.19318-1.1862 0.20972-0.36486 0.0165-0.77089 0.0876-0.90229 0.15792-0.13243 0.0709-0.81911 0.095-1.5407 0.054-1.6392-0.093-2.5416 0.14171-3.4319 0.89239-0.34542 0.29126-0.73035 0.52957-0.85541 0.52957-0.5025 0-0.18566 0.25872 0.41334 0.33752 0.35239 0.0464 0.73176 0.10373 0.84304 0.1275 0.42343 0.0905 0.6763 0.0685 1.4391-0.12485zm-2.4571-2.9247c0.18896-0.0861 0.34356-0.20939 0.34356-0.274 0-0.23427-0.36995-0.24881-1.2218-0.048-0.47793 0.11265-1.0698 0.20571-1.3153 0.20681-0.2628 1e-3 -0.41206 0.0575-0.36298 0.13688 0.11554 0.18695 2.1362 0.16984 2.5565-0.0216zm-6.6705-0.45045c0-0.0371-0.03035-0.0674-0.06744-0.0674s-0.06744 0.0303-0.06744 0.0674 0.03035 0.0674 0.06744 0.0674 0.06744-0.0303 0.06744-0.0674zm41.545-2.0233c0.13981-0.16847 0.12242-0.20233-0.10394-0.20233-0.14952 0-0.30679 0.0911-0.3495 0.20233-0.04532 0.1181-0.0021 0.20233 0.10394 0.20233 0.09987 0 0.25714-0.0911 0.3495-0.20233zm-28.191-0.20233c0-0.0742-0.02677-0.13488-0.05948-0.13488s-0.097 0.0607-0.14285 0.13488c-0.04585 0.0742-0.01908 0.13489 0.05948 0.13489s0.14285-0.0607 0.14285-0.13489zm-3.4903-2.5988c-0.13322-0.13222-0.14871-0.11673-0.07551 0.0755 0.05065 0.13303 0.12608 0.20789 0.16761 0.16636 0.04153-0.0415 8.7e-5 -0.15037-0.0921-0.24186zm1.0174-0.054c-0.04946-0.0495-0.13039-0.0495-0.17985 0-0.04946 0.0495-9e-3 0.0899 0.08992 0.0899s0.13938-0.0405 0.08992-0.0899zm31.069-0.31473c0-0.0742-0.0607-0.13488-0.13488-0.13488-0.07419 0-0.13489 0.0607-0.13489 0.13488 0 0.0742 0.0607 0.13489 0.13489 0.13489 0.07419 0 0.13488-0.0607 0.13488-0.13489zm-31.428-1.6861c0-0.0371-0.03035-0.0674-0.06744-0.0674s-0.06744 0.0303-0.06744 0.0674 0.03035 0.0674 0.06744 0.0674 0.06744-0.0303 0.06744-0.0674zm1.1894-1.2047c0.58943 0.0914 1.1453-0.21761 0.87857-0.48834-0.19125-0.19409-2.0413-0.27656-2.3714-0.10572-0.55597 0.28772 0.06632 0.86491 0.68356 0.63401 0.17194-0.0643 0.53613-0.0823 0.80931-0.0399zm50.337 41.468c-0.11128-0.0719-0.35407-0.13216-0.53954-0.13387-0.45332-4e-3 -0.6675-0.46313-0.88174-1.8894-0.30988-2.0629-0.81632-3.8401-1.1551-4.0536-0.06498-0.0409-0.18022-0.40512-0.25609-0.80931-0.07587-0.40419-0.23613-0.80799-0.35614-0.89733-0.12972-0.0966-0.18943-0.27243-0.14726-0.4337 0.04154-0.15886-0.03512-0.39356-0.18498-0.56635-0.14076-0.1623-0.25592-0.40361-0.25592-0.53626 0-0.13264-0.05805-0.27704-0.129-0.32089-0.07095-0.0438-0.0994-0.15684-0.06324-0.25108 0.08844-0.23047-0.40798-1.3297-0.73358-1.6243-0.16344-0.14792-0.26118-0.41284-0.26118-0.70796 0-0.25938-0.09062-0.57413-0.20138-0.69945-0.26554-0.30046-0.5358-1.5724-0.4783-2.2511 0.04571-0.53955 0.04571-0.53955 1.1102-0.52233 0.88591 0.0143 1.0896 0.0596 1.214 0.26978 0.1295 0.21878 0.19632 0.70776 0.38475 2.8154 0.0199 0.22257 0.10059 0.52606 0.17931 0.67443 0.07872 0.14838 0.28567 0.75536 0.45987 1.3489 0.27805 0.94727 1.1141 2.8473 1.6914 3.8442 0.10742 0.18547 0.19619 0.44677 0.19729 0.58066 0.0011 0.1339 0.11444 0.49809 0.25188 0.80932 0.13744 0.31122 0.28728 0.67208 0.33298 0.80191 0.17342 0.4927 0.48918 0.093 0.49437-0.62584 0.0011-0.14019 0.10806-0.33553 0.23789-0.43408 0.12982-0.0985 0.17177-0.18112 0.0932-0.18348-0.07949-2e-3 -0.14735-0.30308-0.15301-0.67796-0.0088-0.58118 0.04677-0.72934 0.4045-1.0791 0.43183-0.42219 0.63322-0.5057 0.63322-0.26257 0 0.0786 0.0622 0.10442 0.13818 0.0575 0.076-0.047 0.30401-0.049 0.50671-5e-3 0.47386 0.10408 0.98022 1.0807 1.3314 2.568 0.16866 0.7142 0.32386 1.0911 0.46011 1.1173 0.16351 0.0315 0.20928-0.12015 0.22353-0.74053 0.01-0.42906 0.0644-1.5085 0.12118-2.3988 0.12693-1.9898 0.073-4.0173-0.1099-4.1304-0.0888-0.0549-0.0759-0.19593 0.0371-0.40487 0.10183-0.18837 0.16134-0.68591 0.14426-1.2061-0.0232-0.70678 0.0195-0.92713 0.21152-1.092 0.24329-0.20884 0.74213-0.23796 1.1225-0.0655 0.11412 0.0517 0.35691 0.0773 0.53954 0.0569 0.27112-0.0304 0.33474 0.0247 0.34668 0.30002 8e-3 0.18547 0.0302 0.39792 0.0493 0.4721 0.0699 0.27228-0.0264 0.67993-0.20908 0.88492-0.20388 0.2288-0.33027 1.229-0.40804 3.2291-0.0274 0.70477-0.0727 1.5849-0.10072 1.9558-0.028 0.37093-0.0935 1.4299-0.14547 2.3533-0.10086 1.7907-0.3478 3.0075-0.68621 3.3815-0.11443 0.12644-0.25359 0.49636-0.30924 0.82205-0.0948 0.55477-0.12862 0.59244-0.53573 0.59673-0.239 2e-3 -0.43455-0.0389-0.43455-0.0921s-0.11484-0.1331-0.25521-0.17765c-0.14036-0.0446-0.28802-0.20649-0.32813-0.35987-0.0401-0.15339-0.13731-0.23909-0.216-0.19046-0.0875 0.0541-0.13286-0.0349-0.11679-0.22908 0.0145-0.17463-0.17577-0.73643-0.42271-1.2485-0.449-0.93096-0.449-0.93096-0.76296-0.33061-0.17267 0.33019-0.3167 0.69472-0.32005 0.81006-0.01 0.3434-1.1351 2.0161-1.3546 2.0138-0.11146-1e-3 -0.2937-0.0609-0.40498-0.13282zm9.4757-0.40886c-0.16692-0.0671-0.30349-0.17943-0.30349-0.24964 0-0.0702-0.20444-0.33817-0.4543-0.59546-0.64842-0.66769-0.90998-1.2541-0.99423-2.229-0.11061-1.2799 0.3287-3.1104 0.85663-3.5695 0.17717-0.15405 0.32213-0.39054 0.32213-0.52554s0.0548-0.24545 0.12169-0.24545c0.0669 0 0.1821-0.17329 0.25594-0.3851 0.20045-0.57503 1.003-1.0121 1.8848-1.0265 0.54002-9e-3 0.77871-0.0757 0.90984-0.25503 0.14191-0.19407 0.2326-0.21375 0.44972-0.0976 0.14957 0.08 0.39085 0.14555 0.53616 0.14555 0.14532 0 0.29915 0.091 0.34185 0.20233 0.0427 0.11128 0.15639 0.20232 0.25264 0.20232 0.19765 0 0.95428 1.0513 1.434 1.9924 0.30936 0.60696 0.31389 0.66208 0.14909 1.8118-0.0935 0.65221-0.25224 1.2541-0.35279 1.3376-0.10054 0.0834-0.18281 0.22648-0.18281 0.31784 0 0.0914-0.13657 0.32693-0.30349 0.52348s-0.54629 0.65217-0.84304 1.0125c-0.60566 0.73543-1.8096 1.3871-3.0078 1.6281-0.39314 0.0791-0.72698 0.13992-0.74187 0.13522-0.0149-5e-3 -0.16366-0.0634-0.33058-0.13054zm1.7553-1.783c0.16592-0.0927 0.52285-0.33553 0.79318-0.53954 0.27033-0.20402 0.55058-0.37094 0.62278-0.37094 0.14993 0 0.66902-0.75164 1.0929-1.5826 0.29758-0.5833 0.38387-1.25 0.16178-1.25-0.0695 0-0.0919-0.21244-0.0498-0.4721 0.0766-0.4721 0.0766-0.4721-0.57112-0.4721-0.4159 0-0.73687-0.0807-0.89676-0.22536-0.13696-0.12394-0.46951-0.24798-0.739-0.27562-0.39194-0.0402-0.56941 0.0251-0.88698 0.32652-0.50909 0.48317-0.98266 1.426-1.1005 2.1911-0.0509 0.33016-0.14446 0.664-0.20799 0.74187-0.0644 0.079-0.0579 0.47318 0.0149 0.89136 0.10282 0.59129 0.2069 0.79725 0.49236 0.97433 0.43486 0.26976 0.86634 0.29113 1.2743 0.0631zm22.394 1.5299c-0.31654-0.0846-0.98245-0.88796-0.98245-1.1852 0-0.0969-0.065-0.17612-0.14452-0.17612-0.24517 0-0.49243-0.33162-0.59481-0.79773-0.0538-0.24488-0.24346-0.65989-0.4215-0.92226-0.17805-0.26236-0.39117-0.72625-0.47361-1.0309-0.0824-0.30461-0.1714-0.62972-0.19769-0.72245-0.0835-0.29464-0.31757-0.1819-0.41318 0.19905-0.13348 0.53182-0.85 2.0762-1.1261 2.4272-0.82226 1.0453-1.088 1.2618-1.6134 1.3141-0.3828 0.0381-0.62723-0.0205-0.86436-0.20698-0.18184-0.14303-0.39127-0.26006-0.46539-0.26006-0.22806 0-1.239-1.302-1.239-1.5957 0-0.15225-0.0517-0.30879-0.11497-0.34787-0.17331-0.10711-0.29976-1.8174-0.15363-2.078 0.0701-0.12507 0.18975-0.47718 0.26581-0.78248 0.20647-0.82877 1.2186-1.7261 2.1928-1.9441 0.94625-0.21176 1.3904-0.0991 1.9505 0.49475 0.44561 0.47248 0.44561 0.47248 0.44561-0.0113 0-0.52192-0.28066-1.5587-0.42195-1.5587-0.0476 0-0.12812-0.33308-0.17898-0.74018-0.0509-0.4071-0.18561-0.92686-0.29944-1.155-0.13247-0.26554-0.22381-0.90945-0.25377-1.7889-0.0257-0.75574-0.0609-1.609-0.0781-1.8962-0.0312-0.52032-0.0293-0.52235 0.52864-0.57261 0.59919-0.054 0.83848 0.1597 0.83848 0.74871 0 0.29469 0.26297 0.39827 0.27935 0.11003 5e-3 -0.0927 0.12784 0.25628 0.27238 0.77559 0.14455 0.51931 0.31613 1.0656 0.38131 1.214 0.15562 0.35427 0.41784 2.2641 0.41671 3.035-1e-3 0.63843 0.25586 2.0249 0.53961 2.9133 0.0924 0.28944 0.24602 0.76904 0.34129 1.0658 0.0953 0.29674 0.21063 0.76118 0.25633 1.0321s0.22619 0.76168 0.40109 1.0906c0.1749 0.32895 0.36213 0.80534 0.41605 1.0586 0.0539 0.25331 0.17487 0.55161 0.26877 0.66289s0.25109 0.42994 0.3493 0.70815c0.0982 0.2782 0.22708 0.50582 0.28636 0.50582 0.13649 0 0.14203 0.3704 7e-3 0.44289-0.0556 0.0298-0.23568 0.0182-0.40013-0.0258zm-5.5321-3.0706c0.23958-0.34659 0.54182-0.72428 0.67165-0.83929 0.12982-0.11502 0.23605-0.33389 0.23605-0.48638s0.12139-0.3812 0.26977-0.50825c0.14837-0.12704 0.26977-0.32729 0.26977-0.44501 0-0.36191-0.71425-0.95473-1.2776-1.0604-0.50686-0.0951-0.55698-0.0715-1.1103 0.52263-0.60303 0.64745-0.68389 0.97155-0.58661 2.3513 0.0323 0.45784 0.55894 1.0823 0.92035 1.0913 0.0943 2e-3 0.36741-0.27932 0.60699-0.62591zm-9.4785 2.6534c0-0.0742-0.11398-0.13488-0.2533-0.13488-0.36122 0-1.2085-0.37417-1.7053-0.7531-0.23349-0.17809-0.59142-0.66465-0.79541-1.0812-0.30519-0.62328-0.36002-0.88613-0.3095-1.4839 0.0338-0.39954 0.12906-0.80798 0.21177-0.90764 0.0827-0.0997 0.24251-0.4423 0.3551-0.76141 0.22838-0.64731 1.0936-1.6218 1.44-1.622 0.12364-6e-5 0.24504-0.0456 0.26977-0.10128 0.11262-0.25339 1.2654-0.73526 1.9207-0.8029 0.60689-0.0626 0.84467-0.0159 1.4664 0.28832 0.54172 0.26504 0.7264 0.42451 0.68394 0.59058-0.032 0.12512 0.11126 0.4153 0.31835 0.64484 0.64543 0.71538 0.94895 1.1984 1.1792 1.8766 0.40127 1.1819-0.037 3.0321-0.83527 3.5266-0.20463 0.12675-0.43741 0.30779-0.51729 0.40232-0.0799 0.0945-0.38337 0.20067-0.67443 0.23587-0.29105 0.0352-0.52918 0.075-0.52918 0.0884 0 0.13186-0.96898 0.0568-1.1119-0.0862-0.1591-0.15909-0.24445-0.15693-0.57609 0.0146-0.45882 0.23727-0.53761 0.247-0.53761 0.0664zm2.0751-1.3712c0.67725-0.19184 1.432-0.86515 1.432-1.2775 0-0.16654 0.0607-0.34031 0.13488-0.38616 0.24768-0.15307 0.13938-0.50024-0.40465-1.2972-0.29675-0.43473-0.53954-0.85181-0.53954-0.92684 0-0.075-0.12331-0.13641-0.27401-0.13641s-0.31028-0.0945-0.35462-0.21008c-0.0462-0.12035-0.16794-0.17657-0.28504-0.13163-0.11244 0.0431-0.30839-0.0156-0.43544-0.13061-0.24063-0.21777-0.34748-0.18466-1.7371 0.53842-0.40232 0.20935-0.95192 1.8264-0.85351 2.5113 0.10365 0.72141 0.59405 1.2411 1.3384 1.4183 0.87379 0.20805 1.322 0.21449 1.9787 0.0285zm14.413 1.2382c-0.092-0.14737-0.16734-0.33491-0.16734-0.41676 0-0.0819-0.1243-0.24959-0.27622-0.37276-0.26171-0.21219-0.27654-0.36919-0.28237-2.9891-3e-3 -1.5208 0.0492-2.9463 0.11675-3.1677 0.0884-0.28971 0.26356-0.45607 0.62477-0.59354 0.48534-0.18473 0.515-0.17842 0.90134 0.19171 0.38103 0.36505 0.57071 1.1416 0.27886 1.1416-0.0663 0-0.11765 0.13657-0.11403 0.30349 4e-3 0.16692-0.0111 0.90771-0.0328 1.6462-0.0224 0.76525 0.0157 1.361 0.0887 1.3854 0.0704 0.0235 0.26467-0.24689 0.43162-0.60082s0.36043-0.74891 0.42997-0.87773c0.0695-0.12882 0.12642-0.37936 0.12642-0.55675 0-0.47286 0.34335-0.71953 0.64324-0.46212 0.12843 0.11024 0.34506 0.24015 0.4814 0.28869 0.13633 0.0485 0.31656 0.27021 0.40051 0.49261 0.0839 0.22239 0.18484 0.40421 0.22421 0.40403 0.0394-1.3e-4 0.23993-0.34918 0.44567-0.77559 0.2986-0.61885 0.37344-0.96154 0.37094-1.6984-3e-3 -0.8236 0.0272-0.93103 0.27812-0.99665 0.23714-0.062 0.26815-0.14348 0.19767-0.5192-0.0836-0.44563-0.0836-0.44563 0.42688-0.36495 0.28077 0.0444 0.53072 0.13196 0.55545 0.19461 0.0247 0.0626 0.12324 0.11392 0.21891 0.11392 0.18376 0 0.21024 1.122 0.0307 1.3015-0.0507 0.0508-0.0923 0.39652-0.0923 0.76837s-0.0554 0.86249-0.12314 1.0903c-0.0677 0.22783-0.18779 0.69845-0.26681 1.0458-0.079 0.34738-0.33057 0.89367-0.55898 1.214-0.22842 0.32031-0.53924 0.77965-0.69071 1.0208-0.22915 0.36476-0.35843 0.43838-0.7698 0.43838-0.45156 0-0.51559-0.0489-0.73896-0.5645-0.24456-0.5645-0.24456-0.5645-0.64339 0.16861-0.47522 0.87352-1.2231 1.6087-1.8734 1.8415-0.25966 0.093-0.47268 0.16991-0.47338 0.17103-7.9e-4 1e-3 -0.0766-0.11854-0.1686-0.26591zm29.271-0.16646c-0.16692-0.0805-0.30349-0.19297-0.30349-0.24992 0-0.057-0.19727-0.14627-0.43838-0.19847-0.51448-0.11139-1.4552-0.53-2.1311-0.9483-0.42183-0.26107-0.86423-0.46164-2.3201-1.0519-0.20402-0.0827-0.37094-0.20369-0.37094-0.26885 0-0.31759-0.38813 0.2569-0.46952 0.69495-0.0874 0.4707-0.82821 1.6342-1.0463 1.6434-0.0547 2e-3 -0.2603-0.25061-0.45687-0.562-0.25423-0.40273-0.37375-0.80185-0.41403-1.3826-0.0311-0.44902-0.10927-0.96815-0.17362-1.1536-0.0644-0.18547-0.15565-0.58001-0.20287-0.87676-0.0472-0.29675-0.16969-0.84303-0.27215-1.214-0.61417-2.2237-0.94103-4.569-0.72049-5.1699 0.0996-0.27141 0.1747-0.30135 0.55295-0.22048 0.24075 0.0515 0.50492 0.14753 0.58708 0.21345 0.0822 0.0659 0.19233 0.62038 0.24483 1.2321 0.10556 1.2299 0.11968 1.3548 0.26293 2.3262 0.21015 1.425 0.34632 1.613 0.66089 0.91233 0.0911-0.203 0.2438-0.46096 0.33925-0.57326 0.50013-0.58846 0.83811-1.0672 0.83811-1.1871 0-0.0741 0.091-0.16964 0.20233-0.21235 0.11128-0.0427 0.20233-0.14366 0.20233-0.22436s0.17293-0.31022 0.38431-0.51006c0.21138-0.19983 0.42303-0.47245 0.47035-0.60582 0.0707-0.19933 0.17636-0.22621 0.59359-0.15102 0.72319 0.13033 0.86528 0.28207 0.76495 0.81685-0.068 0.36223-0.0413 0.45342 0.13228 0.45342 0.40749 0 0.2178 0.29584-0.96291 1.5018-0.93804 0.95807-1.203 1.3169-1.291 1.7486-0.1071 0.52524 0.0336 0.9311 0.32284 0.9311 0.0614 0 0.38142 0.1821 0.71119 0.40466s0.69342 0.40466 0.80812 0.40466c0.11469 0 0.24604 0.0607 0.29189 0.13488 0.0459 0.0742 0.19468 0.13489 0.33074 0.13489s0.28231 0.0911 0.32502 0.20233c0.0427 0.11128 0.16209 0.20233 0.26531 0.20233s0.2973 0.14597 0.43128 0.32439c0.13398 0.17841 0.31992 0.2951 0.41321 0.25931 0.0933-0.0358 0.23208 0.0517 0.30845 0.19439 0.14055 0.26262 1.017 0.65452 1.6353 0.73125 0.42114 0.0523 0.50399 0.47013 0.20705 1.0444-0.23394 0.4524-0.26729 0.46406-0.71287 0.24916zm3.5841-0.29242c-0.76016-0.79869-1.651-2.6557-1.6572-3.4546-5e-3 -0.60699-5e-3 -0.60699 0.46148-0.56898 0.52929 0.0431 0.95008 0.36062 0.95008 0.71681 0 0.13249 0.0607 0.27842 0.13489 0.32427 0.0742 0.0459 0.13488 0.19283 0.13488 0.32662 0 0.1338 0.17039 0.45766 0.37863 0.7197 0.42516 0.535 0.48943 1.2933 0.15425 1.82-0.22477 0.35324-0.31371 0.3718-0.55697 0.11621zm8.6568-1.229c-0.25167-0.25966-0.56707-0.4721-0.70089-0.4721s-0.24331-0.0557-0.24331-0.12372c0-0.068-0.31866-0.52102-0.70815-1.0066-0.38948-0.48558-0.8172-1.0369-0.95049-1.2251-0.1333-0.18824-0.28661-0.34226-0.34071-0.34226s-0.21818 0.23809-0.36464 0.52909c-0.30495 0.60595-1.2334 1.792-1.5777 2.0155-0.28093 0.18233-0.91422-0.0555-0.91422-0.34327 0-0.10085-0.1419-0.40977-0.31532-0.6865-0.52159-0.83229-0.55984-2.0357-0.062-1.9508 0.11644 0.0199 0.24709-0.056 0.29031-0.16867 0.0682-0.17765 0.13996-0.1703 0.54197 0.0555 0.49429 0.27762 0.62412 0.24689 0.62412-0.14775 0-0.13601 0.087-0.24729 0.19323-0.24729 0.10628 0 0.23187-0.10622 0.27908-0.23605 0.0472-0.12982 0.28284-0.39911 0.52363-0.59842 0.38368-0.31759 0.50081-0.34815 0.94792-0.24731 0.67893 0.15312 1.0164 0.49516 1.7728 1.797 0.34887 0.60041 0.86931 1.3108 1.1565 1.5786 0.28722 0.26784 0.52223 0.55225 0.52223 0.63202 0 0.0798 0.11283 0.17454 0.25073 0.2106 0.41238 0.10784 0.49091 0.75372 0.13741 1.13-0.39773 0.42335-0.52169 0.40557-1.0626-0.15247zm-26.241-0.21184c-0.0451-0.0729-0.15321-0.11697-0.24034-0.0979-0.0871 0.019-0.32881-0.13733-0.53706-0.34745-0.32041-0.32331-0.36286-0.4473-0.27613-0.8066 0.0564-0.23351 0.0845-0.88441 0.0624-1.4464-0.0444-1.1319 0.22037-3.6268 0.40615-3.8273 0.0653-0.0705 0.12313-0.22222 0.12849-0.33721 0.0155-0.33259 0.90901-0.99271 1.3832-1.0218 0.23542-0.0145 0.65018 0.0516 0.92168 0.1469s0.52892 0.13791 0.57205 0.0948c0.10598-0.10597 0.89017 0.7261 0.89017 0.94451 0 0.0954-0.0988 0.31463-0.2196 0.48707-0.17051 0.24343-0.24464 0.27301-0.3316 0.1323-0.0861-0.1393-0.14883-0.14438-0.27126-0.022-0.12242 0.12242-0.21487 0.091-0.3997-0.13601-0.24046-0.29527-0.24046-0.29527-0.63918 0.0851-0.38483 0.36711-0.4545 0.58138-0.64387 1.9801-0.0352 0.25965-0.0128 1.1094 0.0498 1.8884 0.0625 0.77896 0.0701 1.4466 0.0167 1.4837-0.0533 0.0371-0.11821 0.21258-0.14425 0.38997-0.05 0.34123-0.58412 0.64203-0.72762 0.40983zm-7.4128-0.221c-0.40515-0.20642-0.87359-0.66329-1.235-1.2045-0.27553-0.41259-0.01-2.5568 0.36619-2.9573 0.144-0.15328 0.26181-0.32284 0.26181-0.3768 0-0.054 0.1214-0.22842 0.26977-0.38768 0.14838-0.15926 0.26978-0.36472 0.26978-0.45658 0-0.24418 0.79598-0.60534 1.06-0.48092 0.1218 0.0574 0.43164 0.0912 0.68852 0.075 0.25689-0.0162 0.59073 0.0364 0.74187 0.11677 0.47505 0.25268 1.2815 0.97192 1.284 1.1452 1e-3 0.0913 0.14987 0.20304 0.33008 0.24827 0.48706 0.12224 0.80002 0.87716 0.68695 1.6571-0.0942 0.64949-0.56411 1.5006-0.82947 1.5022-0.0837 5.3e-4 -0.23134 0.0964-0.32819 0.2131-0.29919 0.3605-1.9152 1.0427-2.5546 1.0784-0.34398 0.0192-0.78232-0.0554-1.0116-0.17226zm1.6496-1.533c0.0538-0.2058 0.14886-0.26079 0.35942-0.20794 0.3462 0.0869 0.46205 0.0114 0.86629-0.56435 0.3467-0.49381 0.33201-0.76744-0.0412-0.76831-0.17076-5.3e-4 -0.29153-0.16177-0.39417-0.52671-0.0889-0.31621-0.2554-0.56419-0.41719-0.62148-0.79084-0.28007-1.8955 1.0634-1.7199 2.0918 0.12832 0.75158 1.184 1.2195 1.3468 0.59697zm21.382-6.513c-0.16692-0.0827-0.30349-0.19425-0.30349-0.24795s-0.11335-0.20624-0.25187-0.33895c-0.32432-0.31073-0.5062-1.2315-0.2604-1.3183 0.78097-0.27563 1.4565-0.0705 1.4565 0.44228 0 0.11015 0.094 0.26899 0.20884 0.35298 0.15995 0.11696 0.18742 0.28667 0.11734 0.72497-0.0743 0.46433-0.12636 0.54334-0.27629 0.41891-0.13546-0.11242-0.18478-0.11295-0.18478-2e-3 0 0.17778-0.0942 0.17181-0.50582-0.032zm26.554-0.70519c-0.37003 0.04-0.2892-0.57109-0.30899-1.4563-0.0393-1.7578 0.0248-2.8209 0.18139-3.0096 0.10411-0.12545 0.10441-0.22587 1e-3 -0.35055-0.20476-0.24686 0.20395-2.8766 0.50663-3.2593 0.0611-0.0772 0.15125-0.35285 0.20039-0.61251 0.0491-0.25965 0.1243-0.63869 0.16703-0.84231 0.066-0.31434-0.0711-0.54847-0.9078-1.5512-0.54202-0.64953-1.0548-1.2417-1.1394-1.3158-0.0846-0.0742-0.19428-0.29713-0.24364-0.49543-0.0494-0.19829-0.23337-0.53213-0.4089-0.74187-0.17554-0.20973-0.48575-0.7112-0.68936-1.1144s-0.56834-1.0211-0.81051-1.3731c-0.50105-0.7284-0.50148-1.2653-1e-3 -1.4932 0.24476-0.11152 0.36986-0.0791 0.6566 0.17022 0.19481 0.1694 0.35422 0.41487 0.35422 0.54549 0 0.13061 0.0632 0.27651 0.14035 0.32422 0.153 0.0946 0.7118 0.93431 1.1197 1.6827 0.33447 0.6136 1.1826 1.9073 1.3957 2.1289 0.0915 0.0952 0.36073 0.44361 0.5982 0.77429 0.52778 0.73492 0.55854 0.70395 1.1877-1.1955 0.31743-0.95825 0.41585-1.4542 0.35398-1.7839-0.0677-0.36063-0.0278-0.50621 0.18958-0.69233 0.15138-0.12962 0.27525-0.34758 0.27525-0.48434 0-0.32789 0.20055-0.68898 0.61014-1.0986 0.18373-0.18374 0.33406-0.41643 0.33406-0.51709 0-0.10067 0.11517-0.30665 0.25593-0.45774 0.14077-0.15109 0.27787-0.39016 0.30465-0.53125 0.07-0.36867 1.1195-0.44537 1.3035-0.0953 0.2174 0.41372 0.32977 1.4061 0.19352 1.7089-0.8321 1.8496-1.1798 2.4785-1.4313 2.589-0.19588 0.086-0.35696 0.36606-0.49974 0.8688-0.11586 0.40803-0.2825 0.91198-0.37029 1.1199-0.0878 0.20791-0.21723 0.87559-0.28768 1.4837-0.14313 1.2356-0.34154 1.9188-0.67359 2.3197-0.12291 0.14837-0.30484 0.51256-0.40428 0.80931-0.0994 0.29675-0.28584 0.69129-0.41421 0.87676-0.27742 0.40081-0.37194 0.85731-0.52887 2.554-0.13296 1.4375-0.10435 1.5948 0.30069 1.6532 0.43252 0.0624 0.66293 0.97289 0.39149 1.547-0.11086 0.2345-0.31121 0.47729-0.44522 0.53955-0.13401 0.0623-0.38332 0.32095-0.55401 0.57489-0.40552 0.60325-0.35032 0.14115-0.90259 0.20085zm-87.851-7.0075c-0.22054 0.0532-0.47253-0.18389-0.60698-0.16806-0.37271 0.0439-1.7994-0.4326-2.3656-0.79002-0.27708-0.17492-0.624-0.31803-0.77092-0.31803-0.27269 0-0.34221-0.0594-0.82857-0.70815-0.15295-0.20401-0.35906-0.37093-0.458-0.37093-0.11197 0-0.15393-0.0993-0.11112-0.26305 0.03992-0.15266-0.06444-0.44866-0.24868-0.70535-0.58372-0.81327-0.65963-0.96164-1.0917-2.134-0.36456-0.98907-0.51662-1.3724-0.6492-1.6368-0.06082-0.12128-0.08107-0.33372-0.04499-0.4721 0.05931-0.2275-0.27745-1.8085-0.64259-3.0168-0.15311-0.50663-0.24575-9.4618-0.11862-11.465 0.04001-0.63059 0.03405-1.6018-0.01326-2.1582-0.07925-0.93213 0.10655-2.6279 0.35839-3.271 0.14563-0.37187 0.84693-0.30346 1.2403 0.12099 0.25136 0.27122 0.30905 0.44143 0.24003 0.70815-0.04997 0.19311-0.07375 0.5332-0.05282 0.75576 0.03939 0.41901 0.03881 1.2753-0.0038 5.7326-0.04214 4.4091 0.07775 9.0219 0.23953 9.2169 0.08094 0.0975 0.1568 0.50675 0.16857 0.90938 0.01177 0.40263 0.10439 1.0052 0.20582 1.339s0.28339 0.94083 0.40435 1.3489c0.12096 0.40803 0.30298 0.93314 0.40449 1.1669s0.18456 0.50158 0.18456 0.59513c0 0.24103 0.66136 1.3403 0.80637 1.3403 0.06631 0 0.24992 0.23015 0.40802 0.51145 0.1581 0.2813 0.41888 0.56962 0.57951 0.64071 0.16062 0.0711 0.35382 0.25201 0.42932 0.40205 0.0826 0.1641 0.23705 0.25312 0.38766 0.2234 0.1377-0.0272 0.31677 0.017 0.39791 0.0981 0.08111 0.0811 0.2503 0.14754 0.3759 0.14754s0.25846 0.0784 0.29524 0.17429c0.0457 0.11922 0.40533 0.18192 1.1379 0.1984 1.071 0.0241 1.071 0.0241 1.6336-0.51651 0.30945-0.29734 0.56263-0.62001 0.56263-0.71704 0-0.097 0.1214-0.28628 0.26977-0.42055 0.14838-0.13428 0.26978-0.30583 0.26978-0.38122 0-0.0754 0.10446-0.25252 0.23214-0.3936s0.2486-0.51005 0.26872-0.81993c0.02011-0.30989 0.0955-0.71517 0.16759-0.90064 0.0721-0.18547 0.15928-0.7014 0.1938-1.1465 0.0345-0.44512 0.16147-1.386 0.2821-2.0907 0.12063-0.70478 0.20584-1.7063 0.18935-2.2256-0.0658-2.0716-0.0474-4.3784 0.0441-5.5303 0.0902-1.1354 0.05654-1.5457-0.31015-3.7768-0.07316-0.44514-0.153-0.99141-0.17743-1.214-0.07959-0.72497-0.37694-2.1526-0.49738-2.388-0.0684-0.13367-0.06594-0.26156 6e-3 -0.30596 0.17131-0.10574 0.01889-0.9773-0.28224-1.614-0.30331-0.64135-0.31325-0.91339-0.0519-1.4188 0.17574-0.33985 0.2658-0.38187 0.76306-0.35634 0.43488 0.0223 0.58783 0.0939 0.66889 0.31306 0.0578 0.15624 0.19689 0.33545 0.3091 0.39825 0.19927 0.11152 0.52576 1.62 0.39674 1.8331-0.10657 0.17601 0.38406 3.7823 0.58001 4.2632 0.10192 0.25017 0.18531 0.69023 0.18531 0.97792s0.0616 0.52307 0.13694 0.52307c0.18094 0 0.0596 9.0931-0.14222 10.656-0.22858 1.7702-0.35132 2.5696-0.51017 3.3228-0.1809 0.85769-0.96516 2.4773-1.1996 2.4773-0.11543 0-0.17338 0.20184-0.17338 0.60388 0 0.49274-0.0611 0.64391-0.33195 0.82138-0.18258 0.11963-0.36897 0.33413-0.41421 0.47667-0.10831 0.34125-1.4825 1.2674-2.1594 1.4553-0.66831 0.18555-0.67595-0.17627-1.1663-0.0579zm68.379-0.34109c-0.25168 0.18876-0.50629-0.31111-0.50647-0.36498-1.8e-4 -0.0539-0.19765-0.31239-0.43842-0.57451-0.56734-0.6176-0.86184-1.2951-1.1415-2.6258-0.2637-1.2549-0.24758-2.6986 0.035-3.1298 0.10821-0.16516 0.19675-0.3627 0.19675-0.43899 0-0.35998 0.48849-1.2196 0.69305-1.2196 0.12361 0 0.28472-0.16692 0.35802-0.37093 0.15891-0.44235 0.92738-1.2477 1.1906-1.2477 0.10247 0 0.18632-0.0885 0.18632-0.19664 0-0.25737 1.0066-0.83674 1.6621-0.95668 0.36219-0.0663 0.55032-0.18573 0.63238-0.4016 0.18442-0.48505 0.37702-0.51441 0.83678-0.12755 0.2354 0.19809 0.568 0.41338 0.7391 0.47843 0.18062 0.0687 0.3111 0.23054 0.3111 0.38593 0 0.14721 0.14476 0.40668 0.32168 0.57661 0.26914 0.25849 0.61419 0.73587 1.1885 1.6443 0.0516 0.0816 0.34416 0.59116 0.65013 1.1323 0.46045 0.81438 0.53993 1.0584 0.46134 1.4163-0.13156 0.59938-0.75935 1.8484-0.92991 1.8502-0.0773 8e-4 -0.77785 0.67954-1.5568 1.5083-1.9902 2.1175-2.0753 2.1954-2.8282 2.5891-0.79797 0.41725-1.4373-0.39474-2.0614 0.0734zm1.7872-1.6487c0.14649 0.34182 0.6669-0.4345 0.74013-0.60142 0.0732-0.16693 0.17732-0.3035 0.23129-0.3035 0.15985 0 1.934-1.7864 2.4649-2.482 0.66097-0.86592 0.76869-1.1867 0.58022-1.7281-0.19955-0.57331-0.64051-1.3202-0.77946-1.3202-0.0596 0-0.17218-0.16692-0.25019-0.37093-0.15337-0.40114-0.35712-0.67017-0.7276-0.96072-0.1889-0.14815-0.27632-0.1517-0.4377-0.0178-0.1627 0.13504-0.26912 0.12315-0.55095-0.0615-0.3186-0.20876-0.36995-0.21016-0.58456-0.016-0.12939 0.1171-0.29116 0.21586-0.35952 0.21904-0.0684 3e-3 -0.43312 0.29168-0.81061 0.6407-0.70457 0.65145-0.94504 1.0302-1.6806 2.6467-0.42457 0.93307-0.42457 0.93307-0.20624 1.6091 0.1485 0.45985 0.17428 0.72003 0.0806 0.8137-0.30708 0.30705-0.12272 0.75555 0.61297 1.4912 0.41288 0.41286 0.82259 0.74813 0.91048 0.74511 0.0879-3e-3 0.62031-0.64532 0.7668-0.3035zm-18.185 1.1652c-0.0527-0.35555-0.6072-0.55961-0.80283-0.6611-0.46677-0.24217-0.77792-1.1813-0.47474-1.4329 0.35683-0.29613 1.0169-0.13909 1.455 0.34616 0.87728 0.97182 1.3585 0.91046 2.6144-0.33341 1.2188-1.207 1.3118-1.4883 0.71018-2.147-0.42364-0.46382-1.6018-1.1178-1.7967-0.99731-0.0679 0.0419-0.19663 0.0184-0.28612-0.0524-0.0895-0.0708-0.49654-0.23533-0.90457-0.36572-0.84767-0.27088-1.1736-0.52713-1.5407-1.2112-0.2422-0.45139-0.24515-0.51282-0.0448-0.93301 0.11797-0.2474 0.25742-0.7465 0.30989-1.1091 0.0525-0.36263 0.16867-0.81106 0.25824-0.99653 0.0896-0.18547 0.27925-0.58001 0.42149-0.87676 0.18325-0.3823 0.35691-0.55295 0.59584-0.58556 0.18547-0.0253 0.42826-0.12108 0.53955-0.21283 0.21294-0.17555 1.5713-0.75279 1.7715-0.75279 0.0643 0 0.23829-0.1214 0.38667-0.26977 0.14837-0.14838 0.37902-0.26977 0.51256-0.26977s0.31892-0.0759 0.41194-0.16861c0.24101-0.24022 0.64401 0.32492 0.82409 1.1556 0.11304 0.52149 0.10318 0.6875-0.0499 0.84063-0.10494 0.10495-0.21204 0.2545-0.23799 0.33235-0.0324 0.0971-0.18782 0.0925-0.49466-0.0144-0.33318-0.11611-0.53252-0.11716-0.78053-4e-3 -0.18314 0.0836-0.42768 0.15175-0.54333 0.15175-0.39987 0-1.2942 0.85461-1.6148 1.5431-0.54519 1.1708-0.32815 1.9639 0.53746 1.9639 0.2005 0 0.39885 0.0894 0.4408 0.19873 0.0868 0.22615 1.6784 1.0152 2.0478 1.0152 0.32207 0 1.0777 0.63559 1.3256 1.115 0.19751 0.38194 0.14239 0.90825-0.0951 0.90825-0.0692 0-0.12579 0.17851-0.12579 0.3967 0 0.21818-0.0607 0.43421-0.13489 0.48006-0.0742 0.0459-0.13489 0.22409-0.13489 0.3961 0 0.172-0.0951 0.39164-0.21121 0.48803-0.11616 0.0964-0.29637 0.33996-0.40045 0.54122-0.20554 0.39745-1.6366 1.468-2.2884 1.7117-0.22255 0.0832-0.70815 0.18174-1.0791 0.21887-0.63522 0.0636-1.0314 0.1998-1.1216-0.40908zm10.68 0.20008c-0.115-0.43127-0.59498-0.68934-0.72861-1.8655-0.12611-1.1099-0.15048-1.2705-0.45774-3.0151-0.11568-0.6568-0.18227-1.2396-0.14798-1.2951 0.0343-0.0555-8e-3 -0.47877-0.0938-0.94063-0.15611-0.83978-0.15617-0.83977-1.0409-0.76728-1.0827 0.0887-1.3304 0.13288-1.7615 0.31426-0.18547 0.078-0.3979 0.10344-0.4721 0.0565-0.0742-0.0469-0.25098-0.0853-0.39289-0.0853-0.28398 0-0.73072-0.65182-0.73949-1.0791-3e-3 -0.14837 0.0844-0.38872 0.19432-0.53412 0.17933-0.23718 0.37293-0.26508 1.8838-0.26977 1.0219-3e-3 1.6878-0.0585 1.6942-0.14031 6e-3 -0.0742 0.037-0.2794 0.0696-0.45604s-7e-3 -0.40093-0.0877-0.4983c-0.1547-0.18653-0.53112-1.8132-0.53112-2.2957 0-0.15545 0.10622-0.37795 0.23605-0.49444 0.20463-0.18362 0.30472-0.18806 0.7519-0.0333 0.28372 0.0982 0.53975 0.20234 0.56894 0.23153 0.0292 0.0292 0.0901 0.41416 0.13536 0.85548 0.0452 0.44132 0.13413 0.92379 0.19747 1.0722 0.0633 0.14836 0.14352 0.45186 0.17817 0.67442 0.0896 0.57535 0.19624 0.99061 0.2959 1.1519 0.0925 0.14963 1.1232 0.1362 1.2172-0.0159 0.0311-0.0504 0.32793-0.0611 0.65949-0.0237 0.33158 0.0374 0.71189 0.0203 0.84517-0.038 0.41475-0.18137 1.0244-0.17636 1.2107 0.01 0.26911 0.26924 0.21667 0.51509-0.19281 0.90288-0.40394 0.38256-1.15 0.54927-2.5291 0.56618-0.79131 0.01-0.81031 0.0185-0.85417 0.40317-0.0247 0.21638 0.0473 0.97511 0.16001 1.6861 0.11269 0.71096 0.24247 1.6339 0.28843 2.0509 0.0487 0.44212 0.18375 0.86575 0.32381 1.0161 0.13969 0.14993 0.27865 0.58479 0.33205 1.0391 0.0882 0.75052 0.0758 0.79527-0.31521 1.1384-0.22386 0.19644-0.40702 0.46504-0.40702 0.59689 0 0.26948-0.37199 0.52615-0.49043 0.082zm15.159-0.12753c0.0456 0.25102-0.37154-0.40789-0.37177-0.569-2.3e-4 -0.16073-0.0835-0.4506-0.18446-0.64416-0.101-0.19355-0.28848-0.95228-0.41662-1.6861-0.12814-0.73378-0.31828-1.5335-0.42251-1.7771-0.10426-0.24363-0.19151-0.57747-0.19432-0.74187-3e-3 -0.16441-0.0915-0.45067-0.19755-0.63613-0.10602-0.18547-0.19654-0.54966-0.20062-0.80932-4e-3 -0.26954-0.20909-0.8456-0.47687-1.3426-0.54667-1.0146-0.61077-1.6744-0.18478-1.9024 0.20556-0.11002 0.3251-0.11139 0.43163-5e-3 0.0812 0.081 0.25014 0.14738 0.37574 0.14738s0.26679 0.10014 0.31375 0.22253c0.0771 0.20101 0.11441 0.19697 0.38537-0.0418 0.50777-0.4475 3.6714-1.9342 4.1159-1.9342 0.72455 0 1.0615 0.2054 1.144 0.69744 0.0414 0.247 0.11563 0.55079 0.16484 0.6751 0.0617 0.1559-0.0214 0.29867-0.26799 0.46025-0.34966 0.22911-0.36481 0.22637-0.69046-0.12484-0.18314-0.1975-0.37666-0.35909-0.43006-0.35909s-0.27703 0.16692-0.49696 0.37093c-0.52678 0.48865-1.114 0.9101-1.657 1.1892-0.24256 0.12467-0.57129 0.4096-0.7305 0.63318-0.2678 0.3761-0.27851 0.47324-0.1432 1.2985 0.21696 1.3234 0.43284 2.3414 0.56103 2.6455 0.0625 0.14838 0.19053 0.60065 0.2845 1.005 0.094 0.40441 0.3182 1.0685 0.49834 1.4758 0.32106 0.72598 0.32244 0.74471 0.0695 0.95081-0.14187 0.11563-0.33571 0.40751-0.43073 0.64861-0.20028 0.50818-0.96189-0.47226-0.84819 0.15309zm-66.705-0.79577c-0.12624-0.20214-0.25593-0.25011-0.5063-0.18726-0.61349 0.15397-0.69917-0.0739-0.70086-1.8683-1e-3 -1.2659-0.0529-1.7464-0.22081-2.0565-0.12049-0.22256-0.22071-0.6171-0.22271-0.87675-2e-3 -0.25966-0.0949-0.86664-0.20649-1.3489-0.55646-2.405-0.63263-2.8131-0.63613-3.4151-5e-3 -0.89367 0.2246-1.1114 0.94594-0.89532 0.62449 0.1871 1.6522 1.0405 1.6522 1.372 0 0.12365 0.0679 0.26677 0.15078 0.318 0.0915 0.0565 0.12326 0.31163 0.0808 0.64866-0.0385 0.30552-0.0275 0.66795 0.0245 0.80544 0.10524 0.27841-0.0193 0.35035 1.2614-0.72856 0.2782-0.23435 0.50582-0.54121 0.50582-0.6819 0-0.16217 0.0946-0.2558 0.25854-0.2558 0.14219 0 0.27876-0.0595 0.30349-0.13225 0.0533-0.15682 1.3638-0.45147 1.9147-0.43049 0.74258 0.0283 1.5043 1.0316 1.9633 2.586 0.0986 0.33384 0.2616 0.88013 0.36227 1.214s0.19406 1.0015 0.20748 1.4837c0.0134 0.48222 0.10535 1.0805 0.20418 1.3295 0.0988 0.24898 0.14879 0.50277 0.11098 0.56395-0.0378 0.0612-7e-3 0.14938 0.0683 0.19596 0.0754 0.0466 0.13709 0.17819 0.13709 0.29243 0 0.11423 0.10181 0.42226 0.22625 0.6845 0.21534 0.45379 0.2141 0.48569-0.0258 0.66109-0.13862 0.10136-0.35534 0.18429-0.4816 0.18429-0.12625 0-0.26449 0.091-0.3072 0.20233-0.0427 0.11128-0.18145 0.20233-0.30834 0.20233-0.31932 0-1.1266-0.30248-1.1266-0.42212 0-0.054-0.10115-0.19931-0.22479-0.32294-0.18078-0.18078-0.19844-0.30809-0.0903-0.65034 0.1871-0.59214 0.0634-2.7824-0.22966-4.0675-0.0677-0.29675-0.12581-0.78233-0.12935-1.0791-7e-3 -0.58013-0.45592-1.3303-0.64001-1.069-0.0562 0.0798-0.35856 0.26186-0.67194 0.40466-0.31338 0.14279-0.57131 0.32386-0.57327 0.40236-2e-3 0.0785-0.24704 0.3213-0.54474 0.53954-0.29769 0.21825-0.72828 0.73066-0.95686 1.1387-0.34824 0.62161-0.4203 0.90586-0.44457 1.7535-0.0159 0.5564 0.0235 1.1202 0.0876 1.2528 0.20627 0.42681-0.0382 1.4206-0.48773 1.9823-0.23229 0.29028-0.45327 0.53084-0.49106 0.53475-0.0378 4e-3 -0.14509-0.11533-0.23842-0.26479h1e-5zm10.349-0.24532c-0.48418-0.12637-1.0431-0.60075-1.242-1.0541-0.0928-0.21157-0.34334-0.64263-0.55671-0.95792-0.42138-0.62263-0.63172-1.9177-0.54572-3.3599 0.0446-0.748 0.60853-2.2041 0.85361-2.2041 0.0745 0 0.29329-0.14632 0.48626-0.32516 0.47478-0.44001 2.0672-0.77978 3.663-0.78203 1.2659-2e-3 1.2659-2e-3 1.185-0.69491-0.0445-0.38131-0.14201-0.87538-0.21672-1.0979-0.19197-0.57191-0.53233-2.7814-0.613-3.9791-0.0375-0.5564-0.11666-1.0724-0.176-1.1465-0.0974-0.12174-0.36163-0.99103-0.66917-2.2012-0.0633-0.24912-0.0611-0.63163 5e-3 -0.86224 0.0653-0.22801 0.0913-0.45921 0.0575-0.51386-0.10572-0.17101-0.10986-2.478-5e-3 -2.8081 0.0832-0.26203 0.15926-0.29855 0.45796-0.21972 0.19702 0.052 0.47961 0.10266 0.62799 0.1126 0.19078 0.0128 0.28263 0.13049 0.31371 0.40205 0.0342 0.29856 0.0998 0.36938 0.29478 0.3184 0.35114-0.0918 0.41063 0.14433 0.4809 1.9092 0.0336 0.844 0.0934 1.5868 0.1328 1.6506s3e-3 0.24406-0.0805 0.4004c-0.35891 0.67094-0.32427 0.97821 0.38054 3.3631 0.12059 0.40803 0.26748 0.79953 0.32643 0.87001 0.059 0.0705 0.10718 0.21824 0.10718 0.32835 0 0.11011 0.12595 0.46039 0.27989 0.77838 0.25938 0.53581 0.42622 2.0783 0.39166 3.621-0.0321 1.4326 0.57194 3.8442 0.96282 3.8442 0.0555 0 0.14405 0.13569 0.19668 0.30154 0.0526 0.16584 0.27613 0.52607 0.49666 0.80049 0.36177 0.45016 0.38871 0.54928 0.27562 1.0136-0.10181 0.41796-0.18074 0.50861-0.42015 0.48251-0.24501-0.0267-0.29478 0.0365-0.29478 0.37428 0 0.31637-0.0799 0.43676-0.36048 0.54345-0.46143 0.17544-0.61352 0.11095-1.0318-0.43751-0.25654-0.33638-0.36126-0.67306-0.42008-1.3506-0.13641-1.5711-0.37405-1.7144-0.81791-0.49311-0.14838 0.40824-0.42152 0.92712-0.60699 1.1531-0.18547 0.22595-0.44119 0.60158-0.56828 0.83473-0.17068 0.31312-0.50038 0.5483-1.2616 0.8999-1.1276 0.52083-1.5657 0.6228-2.0891 0.48618zm1.7012-2.0501c0.0217-0.36966 0.53818-0.70885 0.71097-0.91048 0.57317-0.66884 0.91951-1.3005 1.2364-2.255 0.17242-0.51931 0.37687-1.0847 0.45432-1.2565 0.21799-0.48333-0.0383-0.75361-0.80498-0.84881-0.36319-0.0451-0.72311-0.0334-0.79985 0.0261-0.0767 0.0594-0.36505 0.0572-0.64071-5e-3 -0.28911-0.0652-0.50121-0.062-0.50121 8e-3 0 0.0664-0.17193 0.12069-0.38208 0.12069-0.28262 0-0.49329 0.13838-0.80931 0.53163-0.23498 0.2924-0.42934 0.61106-0.43152 0.70815-2e-3 0.0971-0.0814 0.2779-0.17563 0.40182-0.21117 0.27771-0.19735 2.1042 0.0218 2.883 0.11531 0.40972 0.27994 0.61872 0.66162 0.83994 0.73672 0.42699 1.4147 0.53002 1.4602-0.2432zm19.957 1.6457c-0.0736 0.0761-0.0691-0.35539-0.0691-0.57019s-0.1513-0.79251-0.33622-1.2838c-0.26797-0.71191-0.35139-1.237-0.41095-2.5865-0.0411-0.9313-0.12555-1.7902-0.18766-1.9087-0.0621-0.11848-0.15552-0.47258-0.20759-0.78689-0.0521-0.31431-0.2435-0.7908-0.42543-1.0589-0.33077-0.48742-0.33077-0.48742 0.012-0.80509 0.40214-0.37268 1.2342-0.57048 1.458-0.34662 0.25831 0.2583 0.77226 0.18583 0.77226-0.1089 0-0.14337 0.11982-0.29871 0.26625-0.34518 0.14645-0.0465 0.38279-0.23267 0.52523-0.41375s0.29075-0.32924 0.32956-0.32924c0.0388 0 0.36392-0.1307 0.72246-0.29044 0.74734-0.33296 1.1195-0.3257 1.8279 0.0357 0.27697 0.14131 0.55059 0.24663 0.60801 0.23406 0.23328-0.0511 0.84629 0.29708 0.84629 0.48067 0 0.87892-0.61462 1.1399-1.7488 0.7425-0.40546-0.14205-0.74906-0.25828-0.76356-0.25828s-0.1586 0.27315-0.3202 0.60699c-0.16161 0.33384-0.38077 0.60698-0.48702 0.60698-0.10626 0-0.26234 0.15175-0.34685 0.33722-0.0845 0.18547-0.19646 0.33721-0.24879 0.33721-0.0523 0-0.22724 0.37937-0.38866 0.84304-0.16143 0.46367-0.34891 0.94404-0.41664 1.0675-0.0749 0.13648-0.0725 0.40043 6e-3 0.67353 0.071 0.24694 0.12879 0.64757 0.12879 0.89018 0 0.2426 0.059 0.5465 0.13109 0.67532 0.27819 0.49704 0.93736 2.7352 0.86277 2.9296-0.1015 0.2645-0.45432 0.2663-0.45432 2e-3 0-0.4289-0.25059-0.1755-0.33798 0.34176-0.0919 0.5441-0.0919 0.5441-0.68468 0.50583-0.33875-0.0219-0.58537-0.297-0.66181-0.21792zm-6.4476-0.84522c-0.13266-0.0775-0.41327-0.10302-0.6236-0.0568-0.27685 0.0608-0.40457 0.0262-0.46272-0.1253-0.0442-0.11511-0.18844-0.20958-0.32059-0.20987-0.13216-2.6e-4 -0.50665-0.17728-0.8322-0.39326s-0.66991-0.36276-0.76524-0.32618c-0.0953 0.0366-0.24778-0.0748-0.33876-0.24744-0.091-0.17267-0.20507-0.3443-0.25352-0.38139-0.0485-0.0371-0.22641-0.29507-0.39547-0.57327-0.16905-0.2782-0.39347-0.50582-0.4987-0.50582-0.11479 0-0.19132-0.13659-0.19132-0.34145 0-0.18779-0.0894-0.37575-0.19866-0.41768-0.10927-0.0419-0.23833-0.28766-0.28681-0.54608-0.0485-0.25841-0.15635-0.49609-0.23971-0.52818-0.16546-0.0637-0.22645-1.6736-0.0634-1.6736 0.0537 0 0.1387-0.27389 0.1889-0.60864s0.14851-0.64405 0.21849-0.68727c0.07-0.0432 0.0885-0.25494 0.0412-0.47044s-0.0357-0.39647 0.0258-0.40214c0.41195-0.038 0.62935-0.17183 1.2747-0.78467 0.39909-0.37901 0.95323-0.75934 1.2314-0.84517 0.27819-0.0858 0.50582-0.20025 0.50582-0.25428 0-0.054 0.16692-0.13153 0.37094-0.17225 0.20401-0.0407 0.66836-0.13852 1.0319-0.21734 0.36354-0.0788 0.72773-0.0953 0.80931-0.0366 0.0816 0.0587 0.4484 0.1225 0.81511 0.14174 0.48077 0.0252 0.71804 0.10828 0.85068 0.29764 0.10117 0.14444 0.29132 0.26262 0.42256 0.26262 0.28543 0 0.82517 0.54139 0.82517 0.8277 0 0.11183 0.095 0.48204 0.21103 0.82266 0.20166 0.5919 0.19789 0.64526-0.0856 1.2043-0.16313 0.32171-0.33689 0.61529-0.38613 0.65238-0.0493 0.0371-0.2237 0.25961-0.38765 0.49449-0.41112 0.58893-1.589 0.96866-3.6704 1.1832-0.11258 0.0116-0.2728 0.0632-0.35599 0.1146-0.12926 0.0799-0.79295-2e-3 -1.53-0.18973-0.34835-0.0887-0.22502 0.36926 0.23605 0.87594 0.24111 0.26496 0.43838 0.54406 0.43838 0.62023 0 0.0762 0.1214 0.13848 0.26977 0.13848 0.15182 0 0.26978 0.0899 0.26978 0.20566 0 0.11312 0.15173 0.26337 0.3372 0.33388 0.18548 0.0705 0.33722 0.1969 0.33722 0.28086 0 0.084 0.0859 0.11971 0.1908 0.0794 0.10493-0.0403 0.41418 0.0407 0.68719 0.17988 0.58285 0.29714 1.1137 0.2591 1.7676-0.12666 1.2183-0.7188 1.9132 0.0707 1.2565 1.4274-0.3348 0.69163-0.4903 0.78987-1.442 0.91105-0.39038 0.0497-0.78492 0.11691-0.87675 0.14934-0.0918 0.0324-0.27551-4e-3 -0.40817-0.0819h2e-5zm0.27887-6.866c0-0.0853 0.22014-0.1214 0.29955-0.26977 0.0794-0.14838 0.22303-0.26978 0.31916-0.26978 0.16497 0 0.37828-0.33021 0.5361-0.82992 0.1498-0.47433-0.76569-0.99503-1.3618-0.77452-0.18238 0.0675-0.3028 0.0601-0.3028-0.0185 0-0.20615-0.23182-0.1564-1.0294 0.2209-0.43526 0.20592-0.80385 0.48519-0.89005 0.67443-0.0809 0.17763-0.19812 0.32299-0.2604 0.32299-0.0623 0-0.11323 0.12847-0.11323 0.2855 0 0.21916 0.0627 0.2691 0.26995 0.21491 0.14848-0.0388 0.23568-0.0151 0.19378 0.0527s0.0339 0.16242 0.16842 0.21025c0.13452 0.0478 0.33565 0.16089 0.44693 0.25122 0.11128 0.0903 0.38443 0.22511 0.60699 0.29954 0.33135 0.1108 0.4551 0.0896 0.68312-0.11729 0.15315-0.13893 0.43363-0.16726 0.43363-0.2526z" stroke-width=".13489"/></g></svg>
